<?xml version="1.0" encoding="UTF-8"?>
<svg version="1.1" xmlns="http://www.w3.org/2000/svg" width="589" height="424">
<path d="M0 0 C1.47181984 -0.01062721 1.47181984 -0.01062721 2.97337341 -0.02146912 C4.57096748 -0.01775299 4.57096748 -0.01775299 6.20083618 -0.01396179 C7.33149002 -0.01907272 8.46214386 -0.02418365 9.62705994 -0.02944946 C13.36475925 -0.04334973 17.10227425 -0.04238825 20.83999634 -0.04008484 C23.43925037 -0.04397166 26.03850377 -0.0483063 28.63775635 -0.05307007 C34.08670377 -0.06053333 39.53557979 -0.06037869 44.98452759 -0.05497742 C51.27218413 -0.04894033 57.55961674 -0.06124397 63.84723508 -0.08254749 C69.90795529 -0.10232305 75.96855866 -0.10533296 82.02931595 -0.10181236 C84.6024999 -0.10232556 87.17568744 -0.10756308 89.74885178 -0.11762428 C93.34890696 -0.12997241 96.9484454 -0.12320599 100.54849243 -0.11161804 C101.60950668 -0.11926178 102.67052094 -0.12690552 103.76368713 -0.13478088 C114.30934669 -0.05982487 114.30934669 -0.05982487 119.00405884 3.26069641 C122.41864849 9.73212956 122.40489686 16.8919687 122.25283813 24.03462219 C122.24352264 25.06020737 122.23420715 26.08579254 122.22460938 27.14245605 C122.19051972 30.49732722 122.13457826 33.8514434 122.07827759 37.20600891 C122.05021444 39.54582663 122.02352727 41.88566122 121.99815369 44.22550964 C121.92798358 50.35769492 121.83922061 56.48947307 121.74649048 62.62135315 C121.65502884 68.88901578 121.58128165 75.15688461 121.50601196 81.42475891 C121.35596163 93.70366978 121.1862543 105.98222337 121.00405884 118.26069641 C118.52905884 118.75569641 118.52905884 118.75569641 116.00405884 119.26069641 C115.34405884 117.61069641 114.68405884 115.96069641 114.00405884 114.26069641 C114.66405884 114.26069641 115.32405884 114.26069641 116.00405884 114.26069641 C115.99153076 113.00202255 115.97900269 111.74334869 115.96609497 110.4465332 C115.84821077 98.6009699 115.7304823 86.75540506 115.61290741 74.90983868 C115.55245198 68.81951508 115.49194115 62.72919204 115.43130493 56.63887024 C115.37282063 50.76448505 115.31448025 44.89009845 115.25624084 39.01571083 C115.2339646 36.77136496 115.21163596 34.52701961 115.18925476 32.28267479 C115.15798422 29.14603686 115.12689775 26.00939716 115.09585571 22.87275696 C115.08650497 21.93911819 115.07715424 21.00547943 115.06752014 20.04354858 C115.05489891 18.76261826 115.05489891 18.76261826 115.04202271 17.45581055 C115.03096119 16.34274552 115.03096119 16.34274552 115.01967621 15.20719433 C115.00109799 12.89166543 115.00405884 10.57628651 115.00405884 8.26069641 C109.00825293 7.22019378 103.16079825 7.09993076 97.08340454 7.08369446 C96.00616119 7.07712326 94.92891785 7.07055206 93.81903076 7.06378174 C90.27263308 7.0441508 86.72627736 7.03241438 83.17984009 7.02241516 C81.96663778 7.01833963 80.75343548 7.01426411 79.50346947 7.01006508 C73.09277901 6.98925676 66.68210968 6.97492748 60.27139282 6.9655304 C53.64334789 6.95442388 47.01563478 6.9199602 40.38770771 6.8803587 C35.29286558 6.85427489 30.19810395 6.84584632 25.10320091 6.84224892 C22.6587008 6.83736854 20.21420463 6.82571363 17.76976967 6.80721092 C14.35841621 6.78297583 10.94794194 6.78375514 7.53652954 6.79072571 C6.52397598 6.77791565 5.51142242 6.76510559 4.46818542 6.75190735 C0.59615253 6.78083787 -2.17602041 6.82630742 -5.62683105 8.65452576 C-7.80996295 12.81022824 -7.509791 16.80656707 -7.43417358 21.42939758 C-7.4331514 22.46225388 -7.43212921 23.49511017 -7.43107605 24.55926514 C-7.42318892 27.97442225 -7.38719707 31.38869611 -7.35140991 34.80366516 C-7.34141088 37.17209158 -7.33332334 39.54052679 -7.32707214 41.90896606 C-7.30612514 48.14437498 -7.26203644 54.37940147 -7.21231079 60.61463928 C-7.1370653 70.60638173 -7.09914833 80.59835578 -7.05681801 90.59028053 C-7.03904384 94.08979689 -7.01292529 97.58917248 -6.98524475 101.08862305 C-6.97203328 103.21914106 -6.95891087 105.34965963 -6.94589233 107.48017883 C-6.93601288 108.46147766 -6.92613342 109.44277649 -6.91595459 110.45381165 C-6.91154861 111.341306 -6.90714264 112.22880035 -6.90260315 113.14318848 C-6.89648608 113.91875186 -6.89036901 114.69431524 -6.88406658 115.49338055 C-6.99594116 117.26069641 -6.99594116 117.26069641 -7.99594116 118.26069641 C-9.64594116 118.26069641 -11.29594116 118.26069641 -12.99594116 118.26069641 C-13.32594116 81.30069641 -13.65594116 44.34069641 -13.99594116 6.26069641 C-13.33594116 6.26069641 -12.67594116 6.26069641 -11.99594116 6.26069641 C-11.76906616 5.64194641 -11.54219116 5.02319641 -11.30844116 4.38569641 C-8.79187154 0.31125036 -4.48673861 0.01084762 0 0 Z " fill="#545454" transform="translate(238.99594116210938,108.73930358886719)"/>
<path d="M0 0 C0.66 0 1.32 0 2 0 C2 0.66 2 1.32 2 2 C3.98 1.67 5.96 1.34 8 1 C7.67 21.46 7.34 41.92 7 63 C3.04 63 -0.92 63 -5 63 C-5.66386719 61.73285156 -6.32773438 60.46570313 -7.01171875 59.16015625 C-7.90358943 57.4609079 -8.79551971 55.76169082 -9.6875 54.0625 C-10.12255859 53.23169922 -10.55761719 52.40089844 -11.00585938 51.54492188 C-13.18096846 47.40415866 -15.38456283 43.28530772 -17.66796875 39.203125 C-19.85690661 35.28836838 -21.8488399 31.30493429 -23.7890625 27.26171875 C-25.22271266 24.58403023 -26.8458425 22.1541575 -29 20 C-29.33 34.19 -29.66 48.38 -30 63 C-33.3 63 -36.6 63 -40 63 C-40 42.54 -40 22.08 -40 1 C-26 2 -26 2 -24 3 C-21.93821366 6.28597197 -20.26414727 9.18994838 -19.0625 12.875 C-17.81461376 16.54525364 -16.00663681 19.6305124 -14.0234375 22.94921875 C-13 25 -13 25 -13 28 C-12.01 28.33 -11.02 28.66 -10 29 C-9.67 30.65 -9.34 32.3 -9 34 C-8.34 34 -7.68 34 -7 34 C-6.34 36.97 -5.68 39.94 -5 43 C-4.34 43 -3.68 43 -3 43 C-3 29.14 -3 15.28 -3 1 C-2.01 1.33 -1.02 1.66 0 2 C0 1.34 0 0.68 0 0 Z M-30 16 C-29 18 -29 18 -29 18 Z " fill="#777777" transform="translate(176,218)"/>
<path d="M0 0 C0.66 0 1.32 0 2 0 C2 0.66 2 1.32 2 2 C2.87567627 1.98428955 2.87567627 1.98428955 3.76904297 1.96826172 C6.47098301 1.92611892 9.17285351 1.90049195 11.875 1.875 C12.7928125 1.85824219 13.710625 1.84148437 14.65625 1.82421875 C22.51244513 1.76889343 30.8883475 2.32946968 38 6 C38.495 6.99 38.495 6.99 39 8 C39.66 8 40.32 8 41 8 C44 11.46153846 44 11.46153846 44 14 C44.66 14 45.32 14 46 14 C50.13930829 24.24971577 50.30480719 36.23976641 48 47 C47.01 47.66 46.02 48.32 45 49 C44.67 49.99 44.34 50.98 44 52 C43.34 52 42.68 52 42 52 C41.773125 52.5775 41.54625 53.155 41.3125 53.75 C38.64661766 58.32008402 34.50668421 60.60431562 29.6171875 62.38256836 C23.8786368 63.73637384 17.92254815 63.34214818 12.0625 63.25 C10.71029198 63.24351537 9.35807726 63.23829684 8.00585938 63.234375 C-1.84567812 63.15432188 -1.84567812 63.15432188 -3 62 C-3.09391296 60.09756238 -3.11743658 58.19161541 -3.11352539 56.28686523 C-3.11344986 55.0656749 -3.11337433 53.84448456 -3.11329651 52.58628845 C-3.10818911 51.24372314 -3.10297311 49.90115825 -3.09765625 48.55859375 C-3.09579199 47.19238842 -3.09436813 45.82618243 -3.09336853 44.4599762 C-3.08954394 40.85798305 -3.07971417 37.25603 -3.06866455 33.65405273 C-3.05844916 29.98096255 -3.05387064 26.30786591 -3.04882812 22.63476562 C-3.03809184 15.42315877 -3.02101614 8.211585 -3 1 C-2.01 1.33 -1.02 1.66 0 2 C0 1.34 0 0.68 0 0 Z M8 11 C7.97532668 16.80240568 7.95715276 22.60478098 7.94506836 28.40722656 C7.9400319 30.38216687 7.93320249 32.35710343 7.92456055 34.33203125 C7.91246492 37.16667605 7.9067649 40.00127166 7.90234375 42.8359375 C7.89460182 44.16569107 7.89460182 44.16569107 7.88670349 45.52230835 C7.74597908 49.89771239 7.74597908 49.89771239 9 54 C19.43215974 54.50973556 19.43215974 54.50973556 29 51 C30.0725 50.443125 31.145 49.88625 32.25 49.3125 C36.67190214 45.59408229 37.73874017 41.66702743 38.28125 36.12890625 C38.4746524 29.80303616 38.18997744 23.60914248 35 18 C31.33191483 14.80018102 29.89977684 14 25 14 C24.67 13.34 24.34 12.68 24 12 C20.99686252 10.49843126 18.20932478 10.90718796 14.875 10.9375 C13.59367187 10.94652344 12.31234375 10.95554688 10.9921875 10.96484375 C10.00476563 10.97644531 9.01734375 10.98804688 8 11 Z " fill="#717171" transform="translate(275,218)"/>
<path d="M0 0 C2.375 -0.125 2.375 -0.125 5 0 C5.66 0.66 6.32 1.32 7 2 C8.46732383 2.45662449 9.94883283 2.86866654 11.4375 3.25 C14.99420262 4.38219794 15.79668312 4.71658859 18.0625 7.875 C18.94663408 10.82211359 19.1690019 12.95796585 19 16 C19.495 16.99 19.495 16.99 20 18 C20.02837176 20.15625362 19.9877862 22.31357032 19.9140625 24.46875 C19.87023437 25.76167969 19.82640625 27.05460937 19.78125 28.38671875 C19.74257813 29.39871338 19.74257813 29.39871338 19.703125 30.43115234 C19.6253144 32.49167442 19.55814519 34.55234951 19.4921875 36.61328125 C19.12861674 46.74276651 19.12861674 46.74276651 18 49 C16.22265625 49.484375 16.22265625 49.484375 14.0625 49.75 C13.35222656 49.84796875 12.64195312 49.9459375 11.91015625 50.046875 C10 50 10 50 8 48 C6.9275 48.309375 5.855 48.61875 4.75 48.9375 C3.5125 49.288125 2.275 49.63875 1 50 C0.319375 50.20625 -0.36125 50.4125 -1.0625 50.625 C-6.54938781 51.68697829 -10.27914772 51.01330997 -15 48 C-18.93017201 44.13321786 -20.84054582 40.8815593 -21.3125 35.3125 C-21.2386285 29.5927353 -18.95163126 24.95163126 -14.9375 20.9375 C-13 20 -13 20 -10 21 C-9.67 20.34 -9.34 19.68 -9 19 C-6.48828125 18.3671875 -6.48828125 18.3671875 -3.3125 17.875 C-2.27738281 17.70742187 -1.24226563 17.53984375 -0.17578125 17.3671875 C2.91601663 17.00971025 5.89093277 16.93474222 9 17 C9 16.01 9 15.02 9 14 C8.38125 13.855625 7.7625 13.71125 7.125 13.5625 C5 13 5 13 3 12 C3 11.34 3 10.68 3 10 C2.33613281 10.144375 1.67226563 10.28875 0.98828125 10.4375 C0.10527344 10.623125 -0.77773438 10.80875 -1.6875 11 C-2.99267578 11.2784375 -2.99267578 11.2784375 -4.32421875 11.5625 C-6.93712964 11.98972047 -9.35813038 12.07616201 -12 12 C-12.33 12.66 -12.66 13.32 -13 14 C-13.99 14.33 -14.98 14.66 -16 15 C-16.38897161 13.37828761 -16.76078298 11.75245075 -17.125 10.125 C-17.33382813 9.22007812 -17.54265625 8.31515625 -17.7578125 7.3828125 C-17.83773438 6.59648437 -17.91765625 5.81015625 -18 5 C-14.58004434 1.58004434 -10.94735036 1.75872725 -6.3125 1.4375 C-4.54326172 1.31181641 -4.54326172 1.31181641 -2.73828125 1.18359375 C-1.83464844 1.12300781 -0.93101562 1.06242188 0 1 C0 0.67 0 0.34 0 0 Z M-8.6875 30.625 C-9.450625 31.40875 -10.21375 32.1925 -11 33 C-10.81171228 35.44480079 -10.81171228 35.44480079 -10 38 C-7.84898936 39.45713624 -6.59713506 40 -4 40 C-3.34 40.66 -2.68 41.32 -2 42 C0.31 41.34 2.62 40.68 5 40 C5 39.34 5 38.68 5 38 C5.66 38 6.32 38 7 38 C7 37.01 7 36.02 7 35 C7.66 35 8.32 35 9 35 C9 32.03 9 29.06 9 26 C2.79598749 26 -3.80512789 26.50184843 -8.6875 30.625 Z " fill="#6D6D6D" transform="translate(351,232)"/>
<path d="M0 0 C1.22976563 -0.01160156 1.22976563 -0.01160156 2.484375 -0.0234375 C11.71579292 0.00624552 11.71579292 0.00624552 15.375 2.25 C21.90821455 10.88882794 20.78715841 20.76673956 20.1875 30.9375 C20.11403835 32.52527701 20.04305629 34.11317078 19.97460938 35.70117188 C19.80327026 39.5527223 19.59855205 43.40114174 19.375 47.25 C15.99102078 47.98285185 13.47799886 48.28068536 10.0625 47.6875 C5.31295679 47.05633147 1.96765158 47.97008071 -2.625 49.25 C-7.79718663 50.00427722 -10.66520436 48.44111046 -14.85546875 45.62890625 C-16.86776112 44.06082853 -18.32287107 42.44734257 -19.625 40.25 C-19.295 39.59 -18.965 38.93 -18.625 38.25 C-19.285 38.25 -19.945 38.25 -20.625 38.25 C-21.99932457 34.43243176 -21.30475039 31.17744671 -20.625 27.25 C-19.635 26.92 -18.645 26.59 -17.625 26.25 C-16.45546584 23.82616923 -16.45546584 23.82616923 -15.625 21.25 C-15.295 20.59 -14.965 19.93 -14.625 19.25 C-12.30343403 18.84270772 -9.9681213 18.50561323 -7.625 18.25 C-7.625 17.59 -7.625 16.93 -7.625 16.25 C-6.861875 16.270625 -6.09875 16.29125 -5.3125 16.3125 C-2.52314214 16.37942841 -2.52314214 16.37942841 0.375 15.25 C1.8909375 15.2809375 1.8909375 15.2809375 3.4375 15.3125 C6.50003181 15.58623843 6.50003181 15.58623843 8.375 13.25 C5.69367279 10.56867279 4.07088799 9.3195888 0.25 8.9375 C-3.75354349 9.26036641 -6.88081658 10.18576291 -10.609375 11.59375 C-12.625 12.25 -12.625 12.25 -15.625 12.25 C-15.96679688 9.22265625 -15.96679688 9.22265625 -16.30859375 6.1953125 C-16.53792961 4.17595684 -16.53792961 4.17595684 -17.625 2.25 C-11.61386808 0.50884455 -6.24320421 -0.05945909 0 0 Z M-7.625 27.25 C-9.22225045 29.88893553 -9.74961779 31.37767547 -9.3125 34.4375 C-8.63731601 36.30947732 -8.63731601 36.30947732 -7.625 38.25 C-3.65137949 39.26803501 0.20498887 39.53600272 4.1875 38.5625 C6.80667649 36.99099411 8.57477361 35.74262115 10.375 33.25 C10.23150653 30.05045046 10.23150653 30.05045046 9.375 27.25 C8.715 27.25 8.055 27.25 7.375 27.25 C7.375 26.59 7.375 25.93 7.375 25.25 C-0.35468924 24.90894311 -0.35468924 24.90894311 -7.625 27.25 Z " fill="#6C6C6C" transform="translate(429.625,233.75)"/>
<path d="M0 0 C0.495 1.485 0.495 1.485 1 3 C1.639375 3.556875 2.27875 4.11375 2.9375 4.6875 C5.72902911 7.81739627 6.3222087 10.98166586 7 15 C7.14695313 15.80050781 7.29390625 16.60101563 7.4453125 17.42578125 C8.56323219 25.07282767 7.00807193 31.02816086 2.9375 37.5625 C1.9784375 38.7690625 1.9784375 38.7690625 1 40 C0.34 40 -0.32 40 -1 40 C-1.33 40.99 -1.66 41.98 -2 43 C-9.41830051 46.25681486 -16.03139442 46.68677671 -23.6015625 44.0546875 C-28.64752573 41.83577859 -31.95724047 39.54731257 -34.09375 34.328125 C-36.86732074 24.41517773 -37.29840907 15.42343527 -33 6 C-32.67 5.195625 -32.34 4.39125 -32 3.5625 C-31 2 -31 2 -28 1 C-27.505 0.505 -27.01 0.01 -26.5 -0.5 C-23.43261705 -3.56738295 -19.30036704 -3.35023614 -15.1875 -3.6875 C-13.98480469 -3.79449219 -12.78210938 -3.90148437 -11.54296875 -4.01171875 C-6.86554675 -3.99624767 -3.36038079 -3.36038079 0 0 Z M-21 7 C-22.37189827 10.02982306 -22.37189827 10.02982306 -23 13 C-23.66 13 -24.32 13 -25 13 C-26.29411743 21.48192629 -26.24809794 27.18800305 -21.3125 34.5 C-20.879375 34.995 -20.44625 35.49 -20 36 C-18.35 35.67 -16.7 35.34 -15 35 C-15 35.66 -15 36.32 -15 37 C-14.01 37 -13.02 37 -12 37 C-12 36.34 -12 35.68 -12 35 C-10.35 34.67 -8.7 34.34 -7 34 C-6.67 32.35 -6.34 30.7 -6 29 C-5.34 29 -4.68 29 -4 29 C-2.65883586 26.31767173 -2.83095979 24.18167741 -2.8125 21.1875 C-2.79832031 20.14980469 -2.78414062 19.11210937 -2.76953125 18.04296875 C-3.14226975 13.12155703 -4.32037038 10.67962962 -7.8125 7.1875 C-12.48135678 3.98338261 -16.11098905 4.09302051 -21 7 Z " fill="#6F6F6F" transform="translate(228,237)"/>
<path d="M0 0 C3.3 0 6.6 0 10 0 C11.6040687 4.81220611 12.02622323 6.86888386 11 12 C15.95 12.33 20.9 12.66 26 13 C27.2077558 16.62326739 26.54311128 17.64146369 25 21 C24.16855469 21.06058594 23.33710938 21.12117188 22.48046875 21.18359375 C20.85044922 21.30927734 20.85044922 21.30927734 19.1875 21.4375 C18.10855469 21.51871094 17.02960938 21.59992188 15.91796875 21.68359375 C12.94010095 21.90212461 12.94010095 21.90212461 10 23 C10.05187541 26.75112898 10.14695218 30.49995532 10.25 34.25 C10.26417969 35.31347656 10.27835937 36.37695312 10.29296875 37.47265625 C10.32519531 38.49746094 10.35742188 39.52226562 10.390625 40.578125 C10.41157227 41.52075195 10.43251953 42.46337891 10.45410156 43.43457031 C11.15234698 46.71594905 12.39350795 47.94741748 15 50 C17.60258427 50.26902765 17.60258427 50.26902765 20.25 49.75 C21.14203125 49.62109375 22.0340625 49.4921875 22.953125 49.359375 C23.62859375 49.24078125 24.3040625 49.1221875 25 49 C26.50662097 52.01324195 26.17770373 54.68286377 26 58 C23.16546061 60.83453939 21.20098712 60.29999688 17.25 60.3125 C16.03828125 60.32925781 14.8265625 60.34601563 13.578125 60.36328125 C9.59267844 59.9586453 7.33389244 59.21173032 4 57 C0.33374645 52.47798398 -0.46801747 49.62634067 -0.171875 43.8515625 C-0.13009125 42.86547501 -0.13009125 42.86547501 -0.08746338 41.85946655 C0.00518904 39.77980037 0.12707981 37.70307428 0.25 35.625 C0.3183509 34.20712366 0.38477638 32.78915311 0.44921875 31.37109375 C0.61056435 27.91269271 0.79814443 24.45630057 1 21 C-0.98 21 -2.96 21 -5 21 C-5 18.36 -5 15.72 -5 13 C-3.35 13 -1.7 13 0 13 C-0.33 12.01 -0.66 11.02 -1 10 C-0.34 10 0.32 10 1 10 C0.67 6.7 0.34 3.4 0 0 Z " fill="#6F6F6F" transform="translate(381,222)"/>
<path d="M0 0 C3.5549928 6.33484101 3.39919922 13.70825163 3.2487793 20.77392578 C3.23946381 21.79951096 3.23014832 22.82509613 3.22055054 23.88175964 C3.18646088 27.23663081 3.13051942 30.59074699 3.07421875 33.9453125 C3.0461556 36.28513022 3.01946843 38.6249648 2.99409485 40.96481323 C2.92392474 47.09699851 2.83516178 53.22877666 2.74243164 59.36065674 C2.65097001 65.62831937 2.57722281 71.8961882 2.50195312 78.1640625 C2.35190279 90.44297337 2.18219546 102.72152696 2 115 C0.35 115.33 -1.3 115.66 -3 116 C-3.66 114.35 -4.32 112.7 -5 111 C-4.34 111 -3.68 111 -3 111 C-3.01252808 109.74132614 -3.02505615 108.48265228 -3.03796387 107.18583679 C-3.15584807 95.34027349 -3.27357654 83.49470864 -3.39115143 71.64914227 C-3.45160686 65.55881867 -3.51211769 59.46849563 -3.57275391 53.37817383 C-3.6312382 47.50378864 -3.68957859 41.62940204 -3.74781799 35.75501442 C-3.77009424 33.51066855 -3.79242288 31.2663232 -3.81480408 29.02197838 C-3.84607462 25.88534045 -3.87716109 22.74870075 -3.90820312 19.61206055 C-3.91755386 18.67842178 -3.9269046 17.74478302 -3.9365387 16.78285217 C-3.94495285 15.92889862 -3.953367 15.07494507 -3.96203613 14.19511414 C-3.97309765 13.08204911 -3.97309765 13.08204911 -3.98438263 11.94649792 C-4.00296085 9.63096902 -4 7.3155901 -4 5 C-5.07121094 4.87882812 -6.14242187 4.75765625 -7.24609375 4.6328125 C-8.64328752 4.46402399 -10.04041991 4.29472687 -11.4375 4.125 C-12.14455078 4.04636719 -12.85160156 3.96773438 -13.58007812 3.88671875 C-15.39673432 3.66072324 -17.20062522 3.33699273 -19 3 C-19.495 2.01 -19.495 2.01 -20 1 C-20.61052719 1.00222061 -21.22105438 1.00444122 -21.8500824 1.00672913 C-53.58366612 1.11659865 -85.28076736 1.01277441 -117 0 C-116.67 -0.66 -116.34 -1.32 -116 -2 C-102.05692845 -2.20103961 -88.11371921 -2.38408344 -74.17014313 -2.54658794 C-67.69531872 -2.62257046 -61.22067198 -2.70426054 -54.74609375 -2.79907227 C-48.4957335 -2.89038932 -42.24535342 -2.96661192 -35.99467468 -3.03244972 C-33.61204685 -3.06018335 -31.22947549 -3.09332073 -28.84700012 -3.13199425 C-25.50541174 -3.18530611 -22.16413734 -3.21925859 -18.82226562 -3.2487793 C-17.35058929 -3.27898415 -17.35058929 -3.27898415 -15.84918213 -3.30979919 C-4.19868763 -3.36414419 -4.19868763 -3.36414419 0 0 Z " fill="#545454" transform="translate(358,112)"/>
<path d="M0 0 C0.66 0 1.32 0 2 0 C2 0.66 2 1.32 2 2 C3.98 1.67 5.96 1.34 8 1 C7.67 21.46 7.34 41.92 7 63 C3.04 63 -0.92 63 -5 63 C-6.61022119 60.00311553 -8.2132631 57.00273966 -9.8125 54 C-10.26431641 53.16082031 -10.71613281 52.32164062 -11.18164062 51.45703125 C-18.37082462 37.91827598 -18.37082462 37.91827598 -17.56958008 33.7734375 C-17.28763794 32.89558594 -17.28763794 32.89558594 -17 32 C-15.68 32 -14.36 32 -13 32 C-12.34 32.66 -11.68 33.32 -11 34 C-9.68 34 -8.36 34 -7 34 C-6.34 36.97 -5.68 39.94 -5 43 C-4.34 43 -3.68 43 -3 43 C-3 29.14 -3 15.28 -3 1 C-2.01 1.33 -1.02 1.66 0 2 C0 1.34 0 0.68 0 0 Z " fill="#6D6D6D" transform="translate(176,218)"/>
<path d="M0 0 C2 2 2 2 2.125 4.625 C2.08375 5.40875 2.0425 6.1925 2 7 C1.24244919 6.99777939 0.48489838 6.99555878 -0.29560852 6.99327087 C-7.4320035 6.97324051 -14.56838486 6.95801183 -21.70480061 6.94818783 C-25.37376924 6.94296745 -29.04271465 6.93588511 -32.71166992 6.92456055 C-36.25187089 6.91370168 -39.79204952 6.90771678 -43.33226585 6.90512276 C-45.34141655 6.90237367 -47.35055825 6.8945664 -49.35969543 6.88670349 C-50.58073471 6.88662796 -51.80177399 6.88655243 -53.05981445 6.88647461 C-54.13681107 6.884254 -55.21380768 6.88203339 -56.32344055 6.87974548 C-59.10288701 6.8824463 -59.10288701 6.8824463 -62 8 C-62.33 9.32 -62.66 10.64 -63 12 C-77.85 11.505 -77.85 11.505 -93 11 C-93 8.03 -93 5.06 -93 2 C-68.90537759 1.00213922 -44.83820108 0.91943949 -20.72485352 1.03710938 C-18.89102867 1.04345398 -18.89102867 1.04345398 -17.02015686 1.04992676 C-14.6961931 1.05815442 -12.3722395 1.07060052 -10.04832458 1.08776855 C-8.49976524 1.09266296 -8.49976524 1.09266296 -6.91992188 1.09765625 C-6.01431519 1.10289307 -5.1087085 1.10812988 -4.17565918 1.11352539 C-1.95259767 1.14296484 -1.95259767 1.14296484 0 0 Z M-87 6 C-86.67 6.66 -86.34 7.32 -86 8 C-78.74 8 -71.48 8 -64 8 C-64 7.67 -64 7.34 -64 7 C-71.65083958 5.75088333 -79.27440986 5.90946574 -87 6 Z " fill="#626262" transform="translate(391,287)"/>
<path d="M0 0 C14.19 0 28.38 0 43 0 C43.495 1.98 43.495 1.98 44 4 C46.97 4.33 49.94 4.66 53 5 C53.495 6.485 53.495 6.485 54 8 C49.23497114 9.22361562 44.59385063 9.13369304 39.71166992 9.11352539 C38.78435059 9.11367142 37.85703125 9.11381744 36.90161133 9.1139679 C33.84453979 9.11327269 30.78752961 9.10549864 27.73046875 9.09765625 C25.60769179 9.09579068 23.48491439 9.09436743 21.36213684 9.09336853 C15.78084113 9.08955433 10.19957154 9.07973339 4.61828613 9.06866455 C-1.07934211 9.05842686 -6.77697458 9.05386586 -12.47460938 9.04882812 C-23.64975104 9.03811015 -34.82487335 9.02104687 -46 9 C-46 8.34 -46 7.68 -46 7 C-46.66 7 -47.32 7 -48 7 C-47.67 6.34 -47.34 5.68 -47 5 C-24.725 4.505 -24.725 4.505 -2 4 C-1.34 2.68 -0.68 1.36 0 0 Z " fill="#3C3B3B" transform="translate(221,290)"/>
<path d="M0 0 C0.99 0 1.98 0 3 0 C3.66 1.32 4.32 2.64 5 4 C5.66 4 6.32 4 7 4 C11.13930829 14.24971577 11.30480719 26.23976641 9 37 C8.01 37.66 7.02 38.32 6 39 C5.67 39.99 5.34 40.98 5 42 C4.34 42 3.68 42 3 42 C2.814375 42.598125 2.62875 43.19625 2.4375 43.8125 C0.27726247 47.09981799 -2.35107655 47.64854687 -6 49 C-8 46 -8 46 -7.5 43.4375 C-7.335 42.633125 -7.17 41.82875 -7 41 C-7.66 40.34 -8.32 39.68 -9 39 C-8.1028125 38.7525 -8.1028125 38.7525 -7.1875 38.5 C-3.66578771 36.08511157 -2.85562496 33.00588049 -2 29 C-1.62333971 26.13031036 -1.38385677 23.26221764 -1.1875 20.375 C-1.13440674 19.64659912 -1.08131348 18.91819824 -1.02661133 18.16772461 C-0.79547227 13.60571488 -1.45048682 10.34883947 -3 6 C-2 3 -2 3 0 0 Z " fill="#6B6B6B" transform="translate(314,228)"/>
<path d="M0 0 C5.26170694 1.41167747 8.72171358 3.74850232 13 7 C12.67 8.65 12.34 10.3 12 12 C10.3125 12.6875 10.3125 12.6875 8 13 C5.375 11.625 5.375 11.625 3 10 C2.34 9.67 1.68 9.34 1 9 C0.67 10.32 0.34 11.64 0 13 C-1.45922693 12.88590407 -2.91740598 12.75834456 -4.375 12.625 C-5.18710937 12.55539063 -5.99921875 12.48578125 -6.8359375 12.4140625 C-9 12 -9 12 -11 10 C-13.57061311 9.35232207 -13.57061311 9.35232207 -16 9 C-16.99 10.485 -16.99 10.485 -18 12 C-22.67177177 12.91903707 -26.36148096 13.30458348 -31 12 C-31 11.34 -31 10.68 -31 10 C-32.216875 10.495 -33.43375 10.99 -34.6875 11.5 C-37.92486738 12.72479441 -40.50099357 13.32803185 -44 13 C-43.8125 10.1875 -43.8125 10.1875 -43 7 C-39.44877082 4.07545833 -35.40814974 3.12364601 -31 2 C-30.34 2.66 -29.68 3.32 -29 4 C-26.34462628 4.56520003 -23.70855287 4.73788198 -21 5 C-21 4.34 -21 3.68 -21 3 C-14.74458874 0.79220779 -14.74458874 0.79220779 -11.3125 1.75 C-10.549375 2.1625 -9.78625 2.575 -9 3 C-8.236875 3.37125 -7.47375 3.7425 -6.6875 4.125 C-6.130625 4.41375 -5.57375 4.7025 -5 5 C-3.35 3.35 -1.7 1.7 0 0 Z " fill="#575757" transform="translate(308,182)"/>
<path d="M0 0 C0.99 0.33 1.98 0.66 3 1 C4.1875 4.0625 4.1875 4.0625 5 7 C6.32 7 7.64 7 9 7 C9.268125 7.804375 9.53625 8.60875 9.8125 9.4375 C10.204375 10.283125 10.59625 11.12875 11 12 C12.485 12.495 12.485 12.495 14 13 C15.1875 15.0625 15.1875 15.0625 16 17 C15.34 17 14.68 17 14 17 C13.505 18.485 13.505 18.485 13 20 C12.01 20.33 11.02 20.66 10 21 C8.79117904 23.00016466 8.79117904 23.00016466 8 25 C6.02 25 4.04 25 2 25 C2 24.34 2 23.68 2 23 C1.34 23 0.68 23 0 23 C-0.66 22.34 -1.32 21.68 -2 21 C-2.680625 20.67 -3.36125 20.34 -4.0625 20 C-6 19 -6 19 -7 17 C-8.63469331 16.18265334 -10.31294522 15.45293949 -12 14.75 C-15.45462362 12.73480289 -15.75217888 11.64747713 -17 8 C-17.99 7.67 -18.98 7.34 -20 7 C-19.34 7 -18.68 7 -18 7 C-17.67 6.01 -17.34 5.02 -17 4 C-15.03102343 4.73419465 -13.06254564 5.46977987 -11.09765625 6.21484375 C-9.4915958 6.81599487 -7.87315124 7.38415299 -6.25 7.9375 C-3.54934479 9.2128094 -1.91894883 10.72569027 0 13 C0 13.66 0 14.32 0 15 C0.99 14.34 1.98 13.68 3 13 C2.34 12.67 1.68 12.34 1 12 C1 11.01 1 10.02 1 9 C0.01 9 -0.98 9 -2 9 C-2.6875 6.1875 -2.6875 6.1875 -3 3 C-1.5625 1.125 -1.5625 1.125 0 0 Z M6 17 C6.33 17.99 6.66 18.98 7 20 C7.33 19.01 7.66 18.02 8 17 C7.34 17 6.68 17 6 17 Z " fill="#595959" transform="translate(210,90)"/>
<path d="M0 0 C0 0.33 0 0.66 0 1 C32.00278714 2.0162189 63.98298339 2.11889208 96 2 C96.495 3.485 96.495 3.485 97 5 C95.07440498 5.0154612 95.07440498 5.0154612 93.10990906 5.03123474 C81.02883969 5.12886981 68.94782297 5.23159446 56.86683941 5.33933926 C50.6554665 5.39457108 44.44408888 5.44799157 38.23266602 5.49731445 C32.24152774 5.54495408 26.25044753 5.59729686 20.25937843 5.65294075 C17.97039035 5.6733661 15.68138634 5.69207888 13.39237022 5.70907402 C10.19340619 5.73311391 6.99455225 5.76316924 3.7956543 5.79467773 C2.84331406 5.8004332 1.89097382 5.80618866 0.90977478 5.81211853 C-0.39639801 5.82680176 -0.39639801 5.82680176 -1.72895813 5.84178162 C-2.48575017 5.84823417 -3.24254221 5.85468672 -4.02226734 5.8613348 C-6.21228093 5.93237086 -6.21228093 5.93237086 -9 7 C-10.32 7 -11.64 7 -13 7 C-13.33 5.35 -13.66 3.7 -14 2 C-8.76579213 -1.27137992 -5.83394389 -1.10643764 0 0 Z " fill="#4B4B4B" transform="translate(242,110)"/>
<path d="M0 0 C1.47265625 2.41015625 1.47265625 2.41015625 2.0625 5.0625 C2.28035156 5.94035156 2.49820313 6.81820312 2.72265625 7.72265625 C3 10 3 10 2 12 C1.01 12 0.02 12 -1 12 C-1.66 12.99 -2.32 13.98 -3 15 C-5.125 8.375 -5.125 8.375 -4 5 C-5.07121094 4.87882812 -6.14242187 4.75765625 -7.24609375 4.6328125 C-8.64328752 4.46402399 -10.04041991 4.29472687 -11.4375 4.125 C-12.14455078 4.04636719 -12.85160156 3.96773438 -13.58007812 3.88671875 C-15.39673432 3.66072324 -17.20062522 3.33699273 -19 3 C-19.495 2.01 -19.495 2.01 -20 1 C-20.61052719 1.00222061 -21.22105438 1.00444122 -21.8500824 1.00672913 C-53.58366612 1.11659865 -85.28076736 1.01277441 -117 0 C-116.67 -0.66 -116.34 -1.32 -116 -2 C-102.05692845 -2.20103961 -88.11371921 -2.38408344 -74.17014313 -2.54658794 C-67.69531872 -2.62257046 -61.22067198 -2.70426054 -54.74609375 -2.79907227 C-48.4957335 -2.89038932 -42.24535342 -2.96661192 -35.99467468 -3.03244972 C-33.61204685 -3.06018335 -31.22947549 -3.09332073 -28.84700012 -3.13199425 C-25.50541174 -3.18530611 -22.16413734 -3.21925859 -18.82226562 -3.2487793 C-17.35058929 -3.27898415 -17.35058929 -3.27898415 -15.84918213 -3.30979919 C-9.86545594 -3.33771093 -5.42558637 -2.59725152 0 0 Z " fill="#5C5C5C" transform="translate(358,112)"/>
<path d="M0 0 C0.495 1.485 0.495 1.485 1 3 C2.29355827 4.37195574 3.62298702 5.71182656 5 7 C4.67 7.66 4.34 8.32 4 9 C3.505 8.505 3.505 8.505 3 8 C2.34 8.66 1.68 9.32 1 10 C1 8.68 1 7.36 1 6 C-0.74671588 5.20643199 -0.74671588 5.20643199 -3 5 C-4.2065625 5.7734375 -4.2065625 5.7734375 -5.4375 6.5625 C-6.283125 7.036875 -7.12875 7.51125 -8 8 C-9.68437744 7.37943989 -11.35008418 6.70710678 -13 6 C-16.63239813 5.8283633 -16.63239813 5.8283633 -20 7 C-22.01041003 9.93449408 -22.01041003 9.93449408 -23 13 C-23.66 13 -24.32 13 -25 13 C-25 14.98 -25 16.96 -25 19 C-25.33 19 -25.66 19 -26 19 C-26.33 17.02 -26.66 15.04 -27 13 C-27.78375 13.04125 -28.5675 13.0825 -29.375 13.125 C-32 13 -32 13 -34 11 C-33.64934412 7.66876911 -32.81545707 4.82404433 -31 2 C-30.01 1.67 -29.02 1.34 -28 1 C-27.505 0.505 -27.01 0.01 -26.5 -0.5 C-23.43261705 -3.56738295 -19.30036704 -3.35023614 -15.1875 -3.6875 C-13.98480469 -3.79449219 -12.78210938 -3.90148437 -11.54296875 -4.01171875 C-6.86554675 -3.99624767 -3.36038079 -3.36038079 0 0 Z " fill="#757575" transform="translate(228,237)"/>
<path d="M0 0 C0.53625 0.37125 1.0725 0.7425 1.625 1.125 C1.625 1.785 1.625 2.445 1.625 3.125 C2.945 3.785 4.265 4.445 5.625 5.125 C5.98990009 11.44993484 5.98990009 11.44993484 4.375 14.4375 C2.41679186 16.32577213 1.23808848 17.3265563 -1.375 18.125 C-7.50602999 17.90987614 -7.50602999 17.90987614 -10.3125 15.375 C-11.56022135 12.73276655 -11.59751941 11.01775227 -11.375 8.125 C-11.375 7.135 -11.375 6.145 -11.375 5.125 C-10.385 4.795 -9.395 4.465 -8.375 4.125 C-8.375 3.135 -8.375 2.145 -8.375 1.125 C-2.95961538 -1.09038462 -2.95961538 -1.09038462 0 0 Z " fill="#5B5B5B" transform="translate(330.375,145.875)"/>
<path d="M0 0 C2.67291939 4.00937908 2.69300771 7.28930205 2 12 C0.4375 14.0625 0.4375 14.0625 -2 15 C-6.38939738 15.38503486 -8.28986601 15.47342266 -12 13 C-12 12.34 -12 11.68 -12 11 C-12.66 11 -13.32 11 -14 11 C-14.61042815 3.79694786 -14.61042815 3.79694786 -11.75 0.0625 C-6.89405156 -3.57946133 -4.97296706 -3.66429152 0 0 Z " fill="#545454" transform="translate(263,148)"/>
<path d="M0 0 C0.61875 0.680625 1.2375 1.36125 1.875 2.0625 C6.36553981 4.84663468 9.95895922 3.90053544 15 3 C16.50662097 6.01324195 16.17770373 8.68286377 16 12 C13.16546061 14.83453939 11.20098712 14.29999688 7.25 14.3125 C6.03828125 14.32925781 4.8265625 14.34601563 3.578125 14.36328125 C-0.33382897 13.96610688 -2.69186302 13.09994782 -6 11 C-7.78078062 8.77640495 -8.73193168 6.58490851 -10 4 C-8.68 3.67 -7.36 3.34 -6 3 C-6 3.99 -6 4.98 -6 6 C-4.68 6.33 -3.36 6.66 -2 7 C-1.34 4.69 -0.68 2.38 0 0 Z " fill="#6E6E6E" transform="translate(391,268)"/>
<path d="M0 0 C2.77888613 0.69140522 2.77888613 0.69140522 5 1 C5 0.34 5 -0.32 5 -1 C6.32 -1 7.64 -1 9 -1 C9 -0.34 9 0.32 9 1 C9.66 1 10.32 1 11 1 C11.33 0.01 11.66 -0.98 12 -2 C12.66 -1.67 13.32 -1.34 14 -1 C12.60746468 2.48133831 11.36823784 3.47886033 8 5 C7.67 5.66 7.34 6.32 7 7 C2.33710678 7.85486376 -1.37627754 8.30042194 -6 7 C-6 6.34 -6 5.68 -6 5 C-7.216875 5.495 -8.43375 5.99 -9.6875 6.5 C-12.92486738 7.72479441 -15.50099357 8.32803185 -19 8 C-18.8125 5.1875 -18.8125 5.1875 -18 2 C-15.8125 0.25 -15.8125 0.25 -13 -1 C-12.05125 -1.45375 -11.1025 -1.9075 -10.125 -2.375 C-5.90585818 -3.21882836 -3.80248135 -1.86667266 0 0 Z " fill="#757575" transform="translate(283,187)"/>
<path d="M0 0 C1.51400391 0.01740234 1.51400391 0.01740234 3.05859375 0.03515625 C4.07050781 0.04417969 5.08242188 0.05320313 6.125 0.0625 C7.29869141 0.07990234 7.29869141 0.07990234 8.49609375 0.09765625 C8.82609375 1.41765625 9.15609375 2.73765625 9.49609375 4.09765625 C8.17609375 4.09765625 6.85609375 4.09765625 5.49609375 4.09765625 C6.80505095 7.21963103 6.80505095 7.21963103 9.49609375 9.09765625 C9.16609375 10.08765625 8.83609375 11.07765625 8.49609375 12.09765625 C7.83609375 12.09765625 7.17609375 12.09765625 6.49609375 12.09765625 C6.49609375 11.43765625 6.49609375 10.77765625 6.49609375 10.09765625 C1.54609375 10.75765625 -3.40390625 11.41765625 -8.50390625 12.09765625 C-9.16390625 14.07765625 -9.82390625 16.05765625 -10.50390625 18.09765625 C-11.85632969 15.39280938 -11.50390625 13.09832435 -11.50390625 10.09765625 C-11.83390625 9.10765625 -12.16390625 8.11765625 -12.50390625 7.09765625 C-12.50390625 6.10765625 -12.50390625 5.11765625 -12.50390625 4.09765625 C-11.18390625 3.76765625 -9.86390625 3.43765625 -8.50390625 3.09765625 C-8.50390625 2.43765625 -8.50390625 1.77765625 -8.50390625 1.09765625 C-7.29734375 1.12859375 -7.29734375 1.12859375 -6.06640625 1.16015625 C-3.05975097 1.08682319 -2.98370507 0.11636915 0 0 Z " fill="#737373" transform="translate(430.50390625,248.90234375)"/>
<path d="M0 0 C14.19 0 28.38 0 43 0 C43.495 1.98 43.495 1.98 44 4 C44.66 4.66 45.32 5.32 46 6 C45.01 6.33 44.02 6.66 43 7 C42.505 5.515 42.505 5.515 42 4 C41.42509827 4.16455185 40.85019653 4.3291037 40.25787354 4.49864197 C38.0159973 4.99644782 36.1628414 5.08691637 33.87402344 5.02172852 C33.07349548 5.00163223 32.27296753 4.98153595 31.44818115 4.96083069 C30.59387512 4.93379562 29.73956909 4.90676056 28.859375 4.87890625 C27.97719299 4.85529526 27.09501099 4.83168427 26.18609619 4.80735779 C23.37389292 4.73090504 20.56197786 4.64680169 17.75 4.5625 C15.84115984 4.5092609 13.9323057 4.45652063 12.0234375 4.40429688 C7.3487765 4.27531479 2.67435932 4.13947175 -2 4 C-1.34 2.68 -0.68 1.36 0 0 Z " fill="#6C6B6B" transform="translate(221,290)"/>
<path d="M0 0 C1.32 0 2.64 0 4 0 C4.28875 0.804375 4.5775 1.60875 4.875 2.4375 C5.73262568 5.1326468 5.73262568 5.1326468 8 6 C9.2890625 8.1796875 9.2890625 8.1796875 10.625 10.875 C11.07101563 11.75929688 11.51703125 12.64359375 11.9765625 13.5546875 C13 16 13 16 13 19 C13.99 19.33 14.98 19.66 16 20 C16 21.65 16 23.3 16 25 C15.01 25.33 14.02 25.66 13 26 C12.67 26.66 12.34 27.32 12 28 C11.01 27.34 10.02 26.68 9 26 C8.8125 22.875 8.8125 22.875 9 20 C8.37222656 19.7628125 7.74445313 19.525625 7.09765625 19.28125 C4.40863018 17.63879088 4.21196698 16.50045069 3.4375 13.5 C2.42449871 9.51672931 2.42449871 9.51672931 -1 7 C-0.67 4.69 -0.34 2.38 0 0 Z " fill="#767676" transform="translate(216,78)"/>
<path d="M0 0 C2 2 2 2 2.125 4.625 C2.08375 5.40875 2.0425 6.1925 2 7 C-4.75 6.125 -4.75 6.125 -7 5 C-7 4.34 -7 3.68 -7 3 C-33.4 3 -59.8 3 -87 3 C-87 2.67 -87 2.34 -87 2 C-67.60826354 1.14919495 -48.28505279 0.89440127 -28.875 1 C-23.80989858 1.02657185 -18.74483182 1.04646256 -13.6796875 1.0625 C-12.53104218 1.07079834 -11.38239685 1.07909668 -10.19894409 1.08764648 C-9.14828766 1.09094971 -8.09763123 1.09425293 -7.01513672 1.09765625 C-5.62958084 1.10551147 -5.62958084 1.10551147 -4.21603394 1.11352539 C-1.95859011 1.14632307 -1.95859011 1.14632307 0 0 Z " fill="#8F8F8F" transform="translate(391,287)"/>
<path d="M0 0 C17.82 0 35.64 0 54 0 C54 0.66 54 1.32 54 2 C54.66 2.33 55.32 2.66 56 3 C28.775 3.495 28.775 3.495 1 4 C0.67 2.68 0.34 1.36 0 0 Z " fill="#515151" transform="translate(330,290)"/>
<path d="M0 0 C18.15 0 36.3 0 55 0 C55.495 1.485 55.495 1.485 56 3 C48.34619856 3.02528903 40.69240783 3.04284104 33.03857422 3.05493164 C30.43310137 3.0599703 27.82763137 3.0668013 25.22216797 3.07543945 C21.48404236 3.08752544 17.74595403 3.09323288 14.0078125 3.09765625 C12.83695099 3.10281754 11.66608948 3.10797882 10.45974731 3.11329651 C9.37877777 3.11337204 8.29780823 3.11344757 7.18408203 3.11352539 C5.75178757 3.11685631 5.75178757 3.11685631 4.29055786 3.12025452 C2 3 2 3 0 2 C0 1.34 0 0.68 0 0 Z " fill="#464646" transform="translate(283,112)"/>
<path d="M0 0 C0.33 0 0.66 0 1 0 C1.01030746 0.83556931 1.02061493 1.67113861 1.03123474 2.5320282 C1.12977766 10.46004007 1.23236519 18.38798755 1.33933926 26.31589031 C1.3941788 30.39033821 1.44752994 34.46479359 1.49731445 38.53930664 C1.54554102 42.48160448 1.59789282 46.42382909 1.65294075 50.36603737 C1.673104 51.85966954 1.69185483 53.35332157 1.70907402 54.84699059 C1.80574009 63.14467365 2.08858142 71.36907938 2.89002991 79.63386536 C2.9444651 80.80510201 2.9444651 80.80510201 3 82 C2 83 2 83 -0.5625 83.0625 C-1.366875 83.041875 -2.17125 83.02125 -3 83 C-2.505 82.01 -2.505 82.01 -2 81 C-1.01 81 -0.02 81 1 81 C0.84643036 80.46248108 0.69286072 79.92496216 0.53463745 79.37115479 C-1.53077274 70.21091499 -1.14988463 60.35807097 -1.1328125 51.015625 C-1.13376923 49.83458191 -1.13472595 48.65353882 -1.13571167 47.43670654 C-1.13638673 44.96284939 -1.13457998 42.48899039 -1.13037109 40.01513672 C-1.12499391 36.24572769 -1.13034903 32.47643674 -1.13671875 28.70703125 C-1.13605822 26.28906224 -1.13477759 23.8710933 -1.1328125 21.453125 C-1.13483673 20.33730042 -1.13686096 19.22147583 -1.13894653 18.07183838 C-1.12075927 11.96451943 -0.80009908 6.05596342 0 0 Z " fill="#595959" transform="translate(229,144)"/>
<path d="M0 0 C0.33 0 0.66 0 1 0 C1.33 14.19 1.66 28.38 2 43 C10.86485614 42.26126199 14.55116861 41.92632662 22 39 C24.21875 39.4140625 24.21875 39.4140625 26 40 C25.814375 40.78375 25.62875 41.5675 25.4375 42.375 C24.74037734 44.97089775 24.74037734 44.97089775 26 47 C27.485 46.505 27.485 46.505 29 46 C28.67 46.99 28.34 47.98 28 49 C25.93359375 49.94921875 25.93359375 49.94921875 23.4375 50.6875 C22.61121094 50.93886719 21.78492188 51.19023437 20.93359375 51.44921875 C20.29550781 51.63097656 19.65742188 51.81273437 19 52 C19 50.68 19 49.36 19 48 C18.34 47.67 17.68 47.34 17 47 C16.34 46.34 15.68 45.68 15 45 C10.05 44.67 5.1 44.34 0 44 C0 29.48 0 14.96 0 0 Z " fill="#939393" transform="translate(282,229)"/>
<path d="M0 0 C0.33 0 0.66 0 1 0 C1.66 5.94 2.32 11.88 3 18 C3.99 17.67 4.98 17.34 6 17 C6.33 16.34 6.66 15.68 7 15 C7 15.66 7 16.32 7 17 C7.66 17 8.32 17 9 17 C9.05402274 19.10388569 9.09280256 21.20816714 9.125 23.3125 C9.14820313 24.48425781 9.17140625 25.65601563 9.1953125 26.86328125 C9 30 9 30 7 33 C4.36 31.68 1.72 30.36 -1 29 C-0.67 19.43 -0.34 9.86 0 0 Z " fill="#636363" transform="translate(382,243)"/>
<path d="M0 0 C2 2 2 2 2.23377991 4.47987366 C2.22259377 6.04843361 2.22259377 6.04843361 2.21118164 7.64868164 C2.20780289 8.83494644 2.20442413 10.02121124 2.20094299 11.24342346 C2.18748337 12.53594528 2.17402374 13.8284671 2.16015625 15.16015625 C2.15387725 16.50662301 2.14864002 17.853095 2.14439392 19.1995697 C2.13105706 22.76222074 2.10665732 26.32470212 2.07904053 29.88726807 C2.03098257 36.20733251 1.99776065 42.5274622 1.97265625 48.84765625 C1.9696413 49.52043232 1.96662636 50.19320839 1.96352005 50.88637161 C1.9244983 60.96392589 2.14518567 70.95663999 3 81 C1.02 81.495 1.02 81.495 -1 82 C-1.18392504 54.65459057 -0.64898782 27.33688601 0 0 Z " fill="#515151" transform="translate(227,144)"/>
<path d="M0 0 C35.31 0.33 70.62 0.66 107 1 C106.34 2.32 105.68 3.64 105 5 C102.36 5 99.72 5 97 5 C96.505 4.01 96.505 4.01 96 3 C95.38947281 3.00222061 94.77894562 3.00444122 94.1499176 3.00672913 C62.41633388 3.11659865 30.71923264 3.01277441 -1 2 C-0.67 1.34 -0.34 0.68 0 0 Z " fill="#565656" transform="translate(242,110)"/>
<path d="M0 0 C0.66 0.66 1.32 1.32 2 2 C2.66 1.67 3.32 1.34 4 1 C4.05395478 2.62463842 4.09277195 4.24978541 4.125 5.875 C4.14820313 6.77992188 4.17140625 7.68484375 4.1953125 8.6171875 C4 11 4 11 2 13 C1.82251729 15.6405801 1.76906664 18.17449964 1.8046875 20.81445312 C1.80760803 21.62107895 1.81052856 22.42770477 1.8135376 23.2587738 C1.82115841 25.01307106 1.83340085 26.76735282 1.84967041 28.52159119 C1.87512381 31.2947395 1.88820935 34.06769731 1.89794922 36.84094238 C1.92084573 42.72738017 1.95933114 48.61366167 2 54.5 C2.0471126 61.31899391 2.08792814 68.13789796 2.11187744 74.95701599 C2.12488626 77.6948131 2.14990231 80.43233763 2.17529297 83.17004395 C2.18255555 84.8418758 2.18925932 86.51371021 2.1953125 88.18554688 C2.20564514 88.95132553 2.21597778 89.71710419 2.22662354 90.50608826 C2.22699364 92.33894951 2.12291574 94.17126486 2 96 C1.01 96.99 1.01 96.99 0 98 C-0.15386671 85.96073075 -0.30204773 73.92140625 -0.4429636 61.88197803 C-0.5085747 56.29164103 -0.57614659 50.70134204 -0.64819336 45.11108398 C-0.71764573 39.71654157 -0.78195561 34.32196015 -0.84269524 28.92731285 C-0.86677721 26.86880962 -0.89271442 24.81032722 -0.92053413 22.75187111 C-0.95917218 19.86952598 -0.99122311 16.9871774 -1.02172852 14.10473633 C-1.03467453 13.25309402 -1.04762054 12.40145172 -1.06095886 11.52400208 C-1.09651351 7.5369983 -1.0051138 3.89222854 0 0 Z " fill="#4B4B4B" transform="translate(356,122)"/>
<path d="M0 0 C0.99 0.33 1.98 0.66 3 1 C4.1875 4.0625 4.1875 4.0625 5 7 C6.32 7 7.64 7 9 7 C9.268125 7.804375 9.53625 8.60875 9.8125 9.4375 C10.204375 10.283125 10.59625 11.12875 11 12 C11.99 12.33 12.98 12.66 14 13 C13.67 14.65 13.34 16.3 13 18 C11.35 18.33 9.7 18.66 8 19 C6 16 6 16 6 13 C4.35 13 2.7 13 1 13 C1 11.68 1 10.36 1 9 C0.01 9 -0.98 9 -2 9 C-2.6875 6.1875 -2.6875 6.1875 -3 3 C-1.5625 1.125 -1.5625 1.125 0 0 Z " fill="#585858" transform="translate(210,90)"/>
<path d="M0 0 C0.33 0 0.66 0 1 0 C1.01030746 1.07883957 1.02061493 2.15767914 1.03123474 3.26921082 C1.12899369 13.43656507 1.23173018 23.60385848 1.33933926 33.7711134 C1.39450203 38.99818528 1.44791139 44.22526283 1.49731445 49.45239258 C1.54505604 54.49690375 1.59740234 59.54134805 1.65294075 64.58577919 C1.67331994 66.51027066 1.69204026 68.43478044 1.70907402 70.35930443 C1.73321633 73.05495185 1.76325732 75.75047387 1.79467773 78.44604492 C1.8004332 79.24158279 1.80618866 80.03712067 1.81211853 80.85676575 C1.86298421 84.69633954 2.12833657 88.25979479 3 92 C3 92.66 3 93.32 3 94 C1.515 94.495 1.515 94.495 0 95 C-0.66 93.35 -1.32 91.7 -2 90 C-1.34 90 -0.68 90 0 90 C0 60.3 0 30.6 0 0 Z " fill="#636363" transform="translate(355,133)"/>
<path d="M0 0 C-1.875 4.875 -1.875 4.875 -3 6 C-2.34 6.66 -1.68 7.32 -1 8 C-1.73605469 8.09796875 -2.47210938 8.1959375 -3.23046875 8.296875 C-8.93374502 9.17082486 -12.72357331 9.86152256 -17 14 C-17.66 14 -18.32 14 -19 14 C-18.6684371 10.9054129 -17.97117406 9.97195314 -15.6875 7.75 C-13 6 -13 6 -9 6 C-7.87483915 4.16715557 -7.87483915 4.16715557 -7 2 C-7.33 1.01 -7.66 0.02 -8 -1 C-4.37673261 -2.2077558 -3.35853631 -1.54311128 0 0 Z " fill="#797979" transform="translate(358,251)"/>
<path d="M0 0 C1.625 1.0625 1.625 1.0625 2.625 4.0625 C4.62516466 5.27132096 4.62516466 5.27132096 6.625 6.0625 C6.625 7.0525 6.625 8.0425 6.625 9.0625 C5.16577307 8.94840407 3.70759402 8.82084456 2.25 8.6875 C1.43789063 8.61789063 0.62578125 8.54828125 -0.2109375 8.4765625 C-2.375 8.0625 -2.375 8.0625 -4.375 6.0625 C-5.69247324 5.36501417 -7.02414193 4.69290043 -8.375 4.0625 C-7.385 3.4025 -6.395 2.7425 -5.375 2.0625 C-5.705 1.4025 -6.035 0.7425 -6.375 0.0625 C-6.705 0.7225 -7.035 1.3825 -7.375 2.0625 C-8.035 2.0625 -8.695 2.0625 -9.375 2.0625 C-9.375 1.4025 -9.375 0.7425 -9.375 0.0625 C-10.695 0.0625 -12.015 0.0625 -13.375 0.0625 C-13.375 0.7225 -13.375 1.3825 -13.375 2.0625 C-14.365 1.7325 -15.355 1.4025 -16.375 1.0625 C-15.715 1.0625 -15.055 1.0625 -14.375 1.0625 C-14.375 0.4025 -14.375 -0.2575 -14.375 -0.9375 C-9.03366811 -3.85095376 -5.36419814 -2.11744663 0 0 Z " fill="#626262" transform="translate(301.375,185.9375)"/>
<path d="M0 0 C12.87 0.495 12.87 0.495 26 1 C26 1.99 26 2.98 26 4 C16.76 4 7.52 4 -2 4 C-1.34 2.68 -0.68 1.36 0 0 Z " fill="#434344" transform="translate(301,294)"/>
<path d="M0 0 C3.3 0 6.6 0 10 0 C9.814375 0.9075 9.62875 1.815 9.4375 2.75 C8.81366385 5.8437466 8.81366385 5.8437466 9.5625 8.1875 C9.706875 8.785625 9.85125 9.38375 10 10 C9.01 11.485 9.01 11.485 8 13 C8 11.35 8 9.7 8 8 C5.08482708 9.07401108 3.22189824 9.77810176 1 12 C0.67 8.04 0.34 4.08 0 0 Z " fill="#636363" transform="translate(381,222)"/>
<path d="M0 0 C3.15847754 1.85152132 3.97463398 2.93356518 5.3125 6.4375 C7.02907257 10.06137542 8.3678496 11.55328085 11.94921875 13.35546875 C15.60343283 14.50393603 19.21841283 14.30870099 23 14 C23 14.66 23 15.32 23 16 C17.34340852 17.05021276 12.59044246 17.92754688 7.5 14.8125 C4.83367381 12.85646562 2.70404995 10.8755843 1 8 C1.33 7.34 1.66 6.68 2 6 C1.34 6 0.68 6 0 6 C-1.125 2.25 -1.125 2.25 0 0 Z " fill="#6F6F6F" transform="translate(409,266)"/>
<path d="M0 0 C0.82638376 2.89234315 1 4.88742431 1 8 C2.32 8.33 3.64 8.66 5 9 C5 9.66 5 10.32 5 11 C5.99 11 6.98 11 8 11 C8.33 9.35 8.66 7.7 9 6 C11.97 6.495 11.97 6.495 15 7 C15 11 15 11 13.4375 12.75 C10.12624718 14.44807837 7.67259582 14.33387235 4 14 C3.01 13.34 2.02 12.68 1 12 C1 11.34 1 10.68 1 10 C0.34 10 -0.32 10 -1 10 C-1.125 2.25 -1.125 2.25 0 0 Z " fill="#797979" transform="translate(250,149)"/>
<path d="M0 0 C1.32 0 2.64 0 4 0 C4.66 0.66 5.32 1.32 6 2 C6.66 2 7.32 2 8 2 C9.2380014 5.57644848 8.74926071 8.33694766 8 12 C1.42181818 9.68545455 1.42181818 9.68545455 -0.5 6.5625 C-1.01296223 3.93356855 -0.9214475 2.48790824 0 0 Z " fill="#686868" transform="translate(159,250)"/>
<path d="M0 0 C0.99 0 1.98 0 3 0 C3.33 1.98 3.66 3.96 4 6 C3.01 6.33 2.02 6.66 1 7 C1.33 8.98 1.66 10.96 2 13 C-2.75 11.125 -2.75 11.125 -5 10 C-4.67 9.01 -4.34 8.02 -4 7 C-5.32 7 -6.64 7 -8 7 C-8.33 6.01 -8.66 5.02 -9 4 C-8.2575 4.0825 -7.515 4.165 -6.75 4.25 C-3.1946333 3.92678485 -2.37880701 2.53739414 0 0 Z " fill="#7A7A7A" transform="translate(437,268)"/>
<path d="M0 0 C1.32 0.66 2.64 1.32 4 2 C4 2.66 4 3.32 4 4 C3.34 4 2.68 4 2 4 C1.67 5.32 1.34 6.64 1 8 C-1 5 -1 5 -0.625 2.3125 C-0.41875 1.549375 -0.2125 0.78625 0 0 Z M-2 7 C0.1519437 10.22791555 0.20086443 11.28400809 0 15 C0.66 15.33 1.32 15.66 2 16 C1.67 17.65 1.34 19.3 1 21 C-0.12968379 18.82132412 -1.06848701 16.78400251 -1.8125 14.4375 C-3.33602499 11.3102645 -4.92577889 10.53711056 -8 9 C-8.763125 8.608125 -9.52625 8.21625 -10.3125 7.8125 C-10.869375 7.544375 -11.42625 7.27625 -12 7 C-8.33461636 6.05747278 -5.63170285 5.82215043 -2 7 Z " fill="#898989" transform="translate(312,224)"/>
<path d="M0 0 C0.33 0 0.66 0 1 0 C1 19.47 1 38.94 1 59 C0.67 58.34 0.34 57.68 0 57 C-0.66 57 -1.32 57 -2 57 C-1.67 56.01 -1.34 55.02 -1 54 C-0.88427033 52.23659857 -0.82350925 50.46935231 -0.79467773 48.70239258 C-0.77473251 47.62149857 -0.75478729 46.54060455 -0.73423767 45.42695618 C-0.71752518 44.26125595 -0.70081268 43.09555573 -0.68359375 41.89453125 C-0.66281265 40.70018967 -0.64203156 39.50584808 -0.62062073 38.27531433 C-0.55515724 34.45443557 -0.4962549 30.63348724 -0.4375 26.8125 C-0.39431176 24.22460214 -0.35069737 21.63671135 -0.30664062 19.04882812 C-0.19947908 12.69929261 -0.0977066 6.34968766 0 0 Z " fill="#8A8A8A" transform="translate(182,222)"/>
<path d="M0 0 C0.33 0 0.66 0 1 0 C2.33589978 11.30743746 2.09861278 22.63373899 2 34 C1.34 34 0.68 34 0 34 C-2.1466706 22.84072029 -1.06157316 11.24130147 0 0 Z " fill="#595959" transform="translate(358,193)"/>
<path d="M0 0 C0.99 0.33 1.98 0.66 3 1 C3.125 4.375 3.125 4.375 3 8 C1 10 1 10 -2.2578125 10.1953125 C-3.53398437 10.17210937 -4.81015625 10.14890625 -6.125 10.125 C-8.04699219 10.09792969 -8.04699219 10.09792969 -10.0078125 10.0703125 C-11.48894531 10.03550781 -11.48894531 10.03550781 -13 10 C-13 9.34 -13 8.68 -13 8 C-12.22914063 7.90203125 -11.45828125 7.8040625 -10.6640625 7.703125 C-9.66117187 7.55359375 -8.65828125 7.4040625 -7.625 7.25 C-6.62726563 7.11078125 -5.62953125 6.9715625 -4.6015625 6.828125 C-1.85438953 6.25613111 -1.85438953 6.25613111 -0.6484375 3.921875 C-0.43445313 3.28765625 -0.22046875 2.6534375 0 2 C-0.66 1.67 -1.32 1.34 -2 1 C-1.34 0.67 -0.68 0.34 0 0 Z " fill="#6C6C6C" transform="translate(404,272)"/>
<path d="M0 0 C0.66 0.33 1.32 0.66 2 1 C1.67 1.66 1.34 2.32 1 3 C1.66 3.33 2.32 3.66 3 4 C2.62875 4.763125 2.2575 5.52625 1.875 6.3125 C1.58625 7.199375 1.2975 8.08625 1 9 C2.72226496 12.24849977 2.72226496 12.24849977 6 13 C6 13.66 6 14.32 6 15 C4.02 15.33 2.04 15.66 0 16 C-2.0142707 13.73394546 -2.96278409 12.50861739 -3.1875 9.4375 C-3.125625 8.633125 -3.06375 7.82875 -3 7 C-3 6.01 -3 5.02 -3 4 C-2.01 3.67 -1.02 3.34 0 3 C0 2.01 0 1.02 0 0 Z " fill="#696969" transform="translate(322,147)"/>
<path d="M0 0 C0.66 1.32 1.32 2.64 2 4 C3.65 4 5.3 4 7 4 C6.01 5.485 6.01 5.485 5 7 C4.61500109 8.65549531 4.27206865 10.3222433 4 12 C2.125 12.625 2.125 12.625 0 13 C-2 11 -2 11 -2.1953125 8.8359375 C-2.17210937 8.02382812 -2.14890625 7.21171875 -2.125 6.375 C-2.10695312 5.55773437 -2.08890625 4.74046875 -2.0703125 3.8984375 C-2.04710937 3.27195312 -2.02390625 2.64546875 -2 2 C-1.34 2 -0.68 2 0 2 C0 1.34 0 0.68 0 0 Z " fill="#656565" transform="translate(227,113)"/>
<path d="M0 0 C2.97 0.495 2.97 0.495 6 1 C5.01 2.485 5.01 2.485 4 4 C4 4.66 4 5.32 4 6 C4.66 6.33 5.32 6.66 6 7 C5.835 7.70125 5.67 8.4025 5.5 9.125 C4.97584662 12.13888194 4.92900317 14.94713625 5 18 C1.55125864 13.76745378 -0.30438891 9.42576653 -1 4 C-0.5625 1.6875 -0.5625 1.6875 0 0 Z " fill="#646464" transform="translate(415,253)"/>
<path d="M0 0 C1.87295532 -0.36076355 1.87295532 -0.36076355 4.17431641 -0.34057617 C5.46542831 -0.34023628 5.46542831 -0.34023628 6.78262329 -0.33988953 C7.71287323 -0.32440567 8.64312317 -0.30892181 9.6015625 -0.29296875 C10.55316254 -0.28872391 11.50476257 -0.28447906 12.48519897 -0.28010559 C15.53208414 -0.26327896 18.57831391 -0.22561954 21.625 -0.1875 C23.68749046 -0.17245831 25.74999127 -0.15876901 27.8125 -0.14648438 C32.8752535 -0.11336239 37.93751554 -0.06155284 43 0 C43 0.99 43 1.98 43 3 C42.505 2.505 42.505 2.505 42 2 C39.04294679 1.91131701 36.10934944 1.88479704 33.15234375 1.90234375 C32.2659169 1.9037587 31.37949005 1.90517365 30.46620178 1.90663147 C27.62326746 1.91224785 24.78041069 1.92480309 21.9375 1.9375 C20.01497509 1.94251289 18.09244896 1.94707616 16.16992188 1.95117188 C11.44658451 1.96222259 6.72330542 1.97949817 2 2 C2 2.66 2 3.32 2 4 C0.68 3.67 -0.64 3.34 -2 3 C-1.34 2.01 -0.68 1.02 0 0 Z " fill="#9C9C9C" transform="translate(221,290)"/>
<path d="M0 0 C0.33 0 0.66 0 1 0 C1.08948558 4.47427924 0.85743651 8.60563789 0 13 C-0.66 13 -1.32 13 -2 13 C-1.67 14.32 -1.34 15.64 -1 17 C-2.32 17.33 -3.64 17.66 -5 18 C-6.125 14.25 -6.125 14.25 -5 12 C-5.66 11.34 -6.32 10.68 -7 10 C-6.401875 9.835 -5.80375 9.67 -5.1875 9.5 C-1.81472202 7.18723796 -1.1668452 3.80108663 0 0 Z " fill="#707070" transform="translate(312,257)"/>
<path d="M0 0 C0.99 0.33 1.98 0.66 3 1 C3 1.66 3 2.32 3 3 C2.34 3 1.68 3 1 3 C0.67 3.99 0.34 4.98 0 6 C-0.99 6.33 -1.98 6.66 -3 7 C-4.20882096 9.00016466 -4.20882096 9.00016466 -5 11 C-6.98 11 -8.96 11 -11 11 C-11 10.34 -11 9.68 -11 9 C-11.66 9 -12.32 9 -13 9 C-12.67 8.34 -12.34 7.68 -12 7 C-11.01 7.33 -10.02 7.66 -9 8 C-8.67 7.34 -8.34 6.68 -8 6 C-4.9681144 4.11813998 -3.75482645 4 0 4 C0 2.68 0 1.36 0 0 Z " fill="#7B7B7B" transform="translate(223,104)"/>
<path d="M0 0 C0.12375 0.556875 0.2475 1.11375 0.375 1.6875 C0.9677119 4.07752696 0.9677119 4.07752696 2.0625 6.5625 C3 9 3 9 3 12 C2.01 12.33 1.02 12.66 0 13 C-0.99 12.01 -1.98 11.02 -3 10 C-2.67 9.01 -2.34 8.02 -2 7 C-2.66 7 -3.32 7 -4 7 C-4.33 7.99 -4.66 8.98 -5 10 C-4.67 8.35 -4.34 6.7 -4 5 C-3.34 5 -2.68 5 -2 5 C-1.34 3.35 -0.68 1.7 0 0 Z " fill="#787878" transform="translate(414,255)"/>
<path d="M0 0 C2 2 2 2 2.125 4.625 C2.08375 5.40875 2.0425 6.1925 2 7 C-4.75 6.125 -4.75 6.125 -7 5 C-7 4.34 -7 3.68 -7 3 C-7.66 2.67 -8.32 2.34 -9 2 C-8.67 1.67 -8.34 1.34 -8 1 C-6 1 -4 1 -2 1 C-1.34 0.67 -0.68 0.34 0 0 Z " fill="#777777" transform="translate(391,287)"/>
<path d="M0 0 C2.31 0.66 4.62 1.32 7 2 C7.6875 3.8125 7.6875 3.8125 8 6 C6.5625 7.75 6.5625 7.75 5 9 C4.01 8.67 3.02 8.34 2 8 C1.66666667 6.66666667 1.33333333 5.33333333 1 4 C0.01 3.67 -0.98 3.34 -2 3 C-1.34 3 -0.68 3 0 3 C0 2.01 0 1.02 0 0 Z " fill="#6A6A6A" transform="translate(192,94)"/>
<path d="M0 0 C0.33 1.32 0.66 2.64 1 4 C1.99 3.67 2.98 3.34 4 3 C3.814375 3.61875 3.62875 4.2375 3.4375 4.875 C2.76313824 7.04160178 2.76313824 7.04160178 4 9 C4.66 9.33 5.32 9.66 6 10 C4.25 11.125 4.25 11.125 2 12 C-0.25 11.125 -0.25 11.125 -2 10 C-1.67 8.35 -1.34 6.7 -1 5 C-1.66 5 -2.32 5 -3 5 C-3 4.01 -3 3.02 -3 2 C-2.01 2 -1.02 2 0 2 C0 1.34 0 0.68 0 0 Z " fill="#7B7B7B" transform="translate(219,270)"/>
<path d="M0 0 C0.99 0.33 1.98 0.66 3 1 C3.33 3.31 3.66 5.62 4 8 C1.69 7.67 -0.62 7.34 -3 7 C-3.33 7.99 -3.66 8.98 -4 10 C-4.66 9.34 -5.32 8.68 -6 8 C-6 7.01 -6 6.02 -6 5 C-4.36368108 3.95107762 -2.69514137 2.95093297 -1 2 C-0.67 1.34 -0.34 0.68 0 0 Z " fill="#666666" transform="translate(202,266)"/>
<path d="M0 0 C0.66 0 1.32 0 2 0 C2.52973311 1.62212059 3.04853107 3.24781584 3.5625 4.875 C3.85253906 5.77992187 4.14257812 6.68484375 4.44140625 7.6171875 C5 10 5 10 4 12 C3.01 12 2.02 12 1 12 C0.01 13.485 0.01 13.485 -1 15 C-1.66 12.69 -2.32 10.38 -3 8 C-1.68 8.33 -0.36 8.66 1 9 C0.67 6.03 0.34 3.06 0 0 Z " fill="#6D6D6D" transform="translate(356,112)"/>
<path d="M0 0 C3.63 0 7.26 0 11 0 C10.34 0.66 9.68 1.32 9 2 C8.01 2 7.02 2 6 2 C6 2.66 6 3.32 6 4 C5.34 4 4.68 4 4 4 C4 4.66 4 5.32 4 6 C2.35 6 0.7 6 -1 6 C-0.67 4.02 -0.34 2.04 0 0 Z " fill="#5E5E5E" transform="translate(265,189)"/>
<path d="M0 0 C0.33 0.99 0.66 1.98 1 3 C1.99 3.33 2.98 3.66 4 4 C4 5.65 4 7.3 4 9 C3.01 9.33 2.02 9.66 1 10 C0.67 10.66 0.34 11.32 0 12 C-0.99 11.34 -1.98 10.68 -3 10 C-3 9.01 -3 8.02 -3 7 C-1.68 6.34 -0.36 5.68 1 5 C0.34 4.01 -0.32 3.02 -1 2 C-0.67 1.34 -0.34 0.68 0 0 Z " fill="#747474" transform="translate(228,94)"/>
<path d="M0 0 C0.66 0.33 1.32 0.66 2 1 C0.96556141 3.82119614 0.26779294 4.84496198 -2.375 6.375 C-5 7 -5 7 -7.1875 6.25 C-9 5 -9 5 -11 3 C-9.68 3 -8.36 3 -7 3 C-7 2.34 -7 1.68 -7 1 C-5.68 1 -4.36 1 -3 1 C-3 1.66 -3 2.32 -3 3 C-2.34 3 -1.68 3 -1 3 C-0.67 2.01 -0.34 1.02 0 0 Z " fill="#494949" transform="translate(295,185)"/>
<path d="M0 0 C1.5 1.25 1.5 1.25 3 3 C3 4.32 3 5.64 3 7 C3.66 7.66 4.32 8.32 5 9 C4.34 9.66 3.68 10.32 3 11 C2.01 11 1.02 11 0 11 C-0.99 8.36 -1.98 5.72 -3 3 C-2.01 2.67 -1.02 2.34 0 2 C0 1.34 0 0.68 0 0 Z " fill="#4C4C4C" transform="translate(225,90)"/>
<path d="M0 0 C1.32 0.33 2.64 0.66 4 1 C4 4.50935186 3.62457273 7.56484998 3 11 C2.01 11 1.02 11 0 11 C0 7.37 0 3.74 0 0 Z " fill="#767676" transform="translate(192,251)"/>
<path d="M0 0 C-0.226875 0.5775 -0.45375 1.155 -0.6875 1.75 C-1.27095593 4.10993795 -1.27095593 4.10993795 0.4375 6.125 C0.953125 6.74375 1.46875 7.3625 2 8 C2 8.66 2 9.32 2 10 C0.35 10.33 -1.3 10.66 -3 11 C-3.22786458 8.98177083 -3.45572917 6.96354167 -3.68359375 4.9453125 C-3.91292961 2.92595684 -3.91292961 2.92595684 -5 1 C-3 0 -3 0 0 0 Z " fill="#7B7B7B" transform="translate(417,235)"/>
<path d="M0 0 C0.33 0 0.66 0 1 0 C1.36076001 2.97850621 1.71390416 5.95756784 2.0625 8.9375 C2.16626953 9.78763672 2.27003906 10.63777344 2.37695312 11.51367188 C2.47041016 12.32255859 2.56386719 13.13144531 2.66015625 13.96484375 C2.74918213 14.7137085 2.83820801 15.46257324 2.92993164 16.23413086 C2.96461548 17.10823608 2.96461548 17.10823608 3 18 C2 19 2 19 -0.5625 19.0625 C-1.366875 19.041875 -2.17125 19.02125 -3 19 C-2.67 18.34 -2.34 17.68 -2 17 C-1.01 17 -0.02 17 1 17 C0.83628906 16.47921875 0.67257813 15.9584375 0.50390625 15.421875 C-0.14058659 12.3243125 -0.09411589 9.41158906 -0.0625 6.25 C-0.05347656 5.07953125 -0.04445312 3.9090625 -0.03515625 2.703125 C-0.02355469 1.81109375 -0.01195312 0.9190625 0 0 Z " fill="#6F6F6F" transform="translate(229,208)"/>
<path d="M0 0 C0.99 1.485 0.99 1.485 2 3 C1.67 3.99 1.34 4.98 1 6 C1 5.34 1 4.68 1 4 C0.01 4 -0.98 4 -2 4 C-2 3.34 -2 2.68 -2 2 C-4.64 1.34 -7.28 0.68 -10 0 C-9 -2 -9 -2 -7.25 -2.8125 C-4.02857836 -3.0809518 -2.55693136 -1.88405468 0 0 Z " fill="#7E7E7E" transform="translate(263,148)"/>
<path d="M0 0 C0.66 0.99 1.32 1.98 2 3 C2.99 3.66 3.98 4.32 5 5 C1.91190305 6.76462683 0.76687864 7 -3 7 C-3.33 5.35 -3.66 3.7 -4 2 C-2.68 1.34 -1.36 0.68 0 0 Z " fill="#555555" transform="translate(232,110)"/>
<path d="M0 0 C6.875 0.875 6.875 0.875 8 2 C8.07205511 3.68608966 8.08386068 5.37500659 8.0625 7.0625 C8.05347656 7.98160156 8.04445312 8.90070313 8.03515625 9.84765625 C8.02355469 10.55792969 8.01195312 11.26820313 8 12 C7.67 12 7.34 12 7 12 C7 9.36 7 6.72 7 4 C5.02 4.99 5.02 4.99 3 6 C1.68 4.68 0.36 3.36 -1 2 C-0.67 1.34 -0.34 0.68 0 0 Z " fill="#666666" transform="translate(194,248)"/>
<path d="M0 0 C0.33 0 0.66 0 1 0 C1.06058594 0.88042969 1.12117188 1.76085937 1.18359375 2.66796875 C1.26738281 3.82941406 1.35117187 4.99085938 1.4375 6.1875 C1.55931641 7.91033203 1.55931641 7.91033203 1.68359375 9.66796875 C1.95423002 12.51800258 2.4091119 15.20445377 3 18 C3 18.66 3 19.32 3 20 C2.01 20.33 1.02 20.66 0 21 C-0.66 19.35 -1.32 17.7 -2 16 C-1.34 16 -0.68 16 0 16 C0 10.72 0 5.44 0 0 Z " fill="#6A6A6A" transform="translate(355,207)"/>
<path d="M0 0 C1.5 1.375 1.5 1.375 3 3 C3 3.66 3 4.32 3 5 C3.99 5.33 4.98 5.66 6 6 C5.67 7.65 5.34 9.3 5 11 C3.35 11.33 1.7 11.66 0 12 C0.33 9.69 0.66 7.38 1 5 C0.34 4.67 -0.32 4.34 -1 4 C-0.67 2.68 -0.34 1.36 0 0 Z " fill="#6C6C6C" transform="translate(218,97)"/>
<path d="M0 0 C-0.33 2.97 -0.66 5.94 -1 9 C-3.475 8.01 -3.475 8.01 -6 7 C-6 5.68 -6 4.36 -6 3 C-2.78571429 0 -2.78571429 0 0 0 Z " fill="#696969" transform="translate(391,267)"/>
<path d="M0 0 C-0.33 1.65 -0.66 3.3 -1 5 C-3.60582371 5.93065133 -4.64198224 6.14917407 -7.25 5.0625 C-7.8275 4.711875 -8.405 4.36125 -9 4 C-8 2 -8 2 -5.625 0.875 C-3 0 -3 0 0 0 Z " fill="#737373" transform="translate(321,189)"/>
<path d="M0 0 C3.81538462 2.46153846 3.81538462 2.46153846 4.75 5.1875 C4.8325 5.785625 4.915 6.38375 5 7 C4.01 7.66 3.02 8.32 2 9 C1.896875 8.360625 1.79375 7.72125 1.6875 7.0625 C1.460625 6.381875 1.23375 5.70125 1 5 C0.01 4.67 -0.98 4.34 -2 4 C-1.34 2.68 -0.68 1.36 0 0 Z " fill="#494949" transform="translate(215,98)"/>
<path d="M0 0 C2.42776667 1.29480889 3.76967674 2.35838519 4.7109375 4.98046875 C5.19782198 6.9738726 5.60391861 8.98658625 6 11 C5.01 11.495 5.01 11.495 4 12 C3.01 10.68 2.02 9.36 1 8 C1.33 7.34 1.66 6.68 2 6 C1.34 6 0.68 6 0 6 C-1.125 2.25 -1.125 2.25 0 0 Z " fill="#8B8B8B" transform="translate(409,266)"/>
<path d="M0 0 C2.375 -0.125 2.375 -0.125 5 0 C7 2 7 2 7 5 C4.69 5 2.38 5 0 5 C-0.33 4.01 -0.66 3.02 -1 2 C-0.67 1.34 -0.34 0.68 0 0 Z " fill="#616161" transform="translate(283,189)"/>
<path d="M0 0 C0.86625 0.185625 1.7325 0.37125 2.625 0.5625 C6.05152628 1.00667933 8.64212371 0.71954492 12 0 C11.360625 0.2475 10.72125 0.495 10.0625 0.75 C7.81258459 1.81562433 7.81258459 1.81562433 7.25 4.125 C7.1675 4.74375 7.085 5.3625 7 6 C4.69 5.34 2.38 4.68 0 4 C0 2.68 0 1.36 0 0 Z " fill="#7D7D7D" transform="translate(394,271)"/>
<path d="M0 0 C0.33 1.32 0.66 2.64 1 4 C-0.45945288 3.91291331 -1.91765868 3.80473093 -3.375 3.6875 C-4.18710937 3.62949219 -4.99921875 3.57148438 -5.8359375 3.51171875 C-8 3 -8 3 -10 0 C-6.30581799 -1.231394 -3.7943739 -0.64432764 0 0 Z " fill="#878787" transform="translate(307,191)"/>
<path d="M0 0 C0.33 0.99 0.66 1.98 1 3 C0.01 3 -0.98 3 -2 3 C-1.67 3.99 -1.34 4.98 -1 6 C-1.66 6 -2.32 6 -3 6 C-3 6.66 -3 7.32 -3 8 C-2.34 8.33 -1.68 8.66 -1 9 C-2.98 9 -4.96 9 -7 9 C-6.484375 8.05125 -5.96875 7.1025 -5.4375 6.125 C-4.963125 5.09375 -4.48875 4.0625 -4 3 C-4.33 2.34 -4.66 1.68 -5 1 C-3.35 0.67 -1.7 0.34 0 0 Z " fill="#646464" transform="translate(361,249)"/>
<path d="M0 0 C0.99 0.33 1.98 0.66 3 1 C3.54372951 4.05847848 4 6.88772805 4 10 C4.66 10.66 5.32 11.32 6 12 C3 12 3 12 1 11 C0.25 9.1875 0.25 9.1875 0 7 C0.9375 4.75 0.9375 4.75 2 3 C1.01 2.67 0.02 2.34 -1 2 C-0.67 1.34 -0.34 0.68 0 0 Z " fill="#8A8A8A" transform="translate(203,98)"/>
<path d="M0 0 C1.9375 0.75 1.9375 0.75 4 2 C4.75 4.125 4.75 4.125 5 6 C4.01 5.67 3.02 5.34 2 5 C1.34 5.66 0.68 6.32 0 7 C0.3185177 9.10820797 0.3185177 9.10820797 1 11 C0.01 10.34 -0.98 9.68 -2 9 C-1.125 1.125 -1.125 1.125 0 0 Z " fill="#909090" transform="translate(223,87)"/>
<path d="M0 0 C0.33 1.32 0.66 2.64 1 4 C-0.32 3.67 -1.64 3.34 -3 3 C-3.33 3.99 -3.66 4.98 -4 6 C-5.32 5.67 -6.64 5.34 -8 5 C-8 4.01 -8 3.02 -8 2 C-2.25 0 -2.25 0 0 0 Z " fill="#676767" transform="translate(362,275)"/>
<path d="M0 0 C-0.33 0.99 -0.66 1.98 -1 3 C-3.64 3 -6.28 3 -9 3 C-9.33 2.01 -9.66 1.02 -10 0 C-6.30458414 -0.95024979 -3.69541586 -0.95024979 0 0 Z " fill="#616161" transform="translate(292,226)"/>
<path d="M0 0 C-0.639375 0.12375 -1.27875 0.2475 -1.9375 0.375 C-2.618125 0.58125 -3.29875 0.7875 -4 1 C-4.33 1.66 -4.66 2.32 -5 3 C-5.66 3 -6.32 3 -7 3 C-7 2.34 -7 1.68 -7 1 C-8.32 1 -9.64 1 -11 1 C-11 1.66 -11 2.32 -11 3 C-11.99 2.67 -12.98 2.34 -14 2 C-13.34 2 -12.68 2 -12 2 C-12 1.34 -12 0.68 -12 0 C-7.44729118 -2.48329572 -4.775353 -1.68541871 0 0 Z " fill="#7F7F7F" transform="translate(299,185)"/>
<path d="M0 0 C0.66 0.33 1.32 0.66 2 1 C1.67 1.66 1.34 2.32 1 3 C1.66 3.33 2.32 3.66 3 4 C1.02 6.97 1.02 6.97 -1 10 C-1.99 8.68 -2.98 7.36 -4 6 C-3.34 5.01 -2.68 4.02 -2 3 C-1.34 3 -0.68 3 0 3 C0 2.01 0 1.02 0 0 Z " fill="#7D7D7D" transform="translate(322,147)"/>
<path d="M0 0 C0.99 0.33 1.98 0.66 3 1 C3.33 1.99 3.66 2.98 4 4 C4.66 4.66 5.32 5.32 6 6 C5.625 8.125 5.625 8.125 5 10 C2.38499232 7.63404067 0.61000397 5.13950774 -1 2 C-0.67 1.34 -0.34 0.68 0 0 Z " fill="#4F4F4F" transform="translate(217,82)"/>
<path d="M0 0 C0.33 0.66 0.66 1.32 1 2 C1.99 2 2.98 2 4 2 C4 2.66 4 3.32 4 4 C4.66 4.33 5.32 4.66 6 5 C6 5.66 6 6.32 6 7 C1.64464931 5.83857315 -0.64619703 4.92300495 -3 1 C-2.01 0.67 -1.02 0.34 0 0 Z " fill="#838383" transform="translate(336,275)"/>
<path d="M0 0 C0.33 0.66 0.66 1.32 1 2 C1.66 2 2.32 2 3 2 C3.66 4.31 4.32 6.62 5 9 C3.125 8.6875 3.125 8.6875 1 8 C-1 5 -1 5 -0.625 2.3125 C-0.41875 1.549375 -0.2125 0.78625 0 0 Z " fill="#868686" transform="translate(318,230)"/>
<path d="M0 0 C0.33 0.66 0.66 1.32 1 2 C1.66 2.33 2.32 2.66 3 3 C-1.92737019 4.97094808 -5.78020872 5.1799928 -11 5 C-8.03719723 2.47613098 -5.82264303 1.60357521 -2 1 C-1.34 0.67 -0.68 0.34 0 0 Z " fill="#888888" transform="translate(353,278)"/>
<path d="M0 0 C2.39854906 2.08905886 3.83687696 3.52228253 4.875 6.5625 C5 9 5 9 3 12 C2.49166409 10.75336669 1.99368855 9.50250613 1.5 8.25 C1.2215625 7.55390625 0.943125 6.8578125 0.65625 6.140625 C0 4 0 4 0 0 Z " fill="#5D5D5D" transform="translate(230,243)"/>
<path d="M0 0 C2.9375 1.1875 2.9375 1.1875 3.9375 3.1875 C2.32875 3.125625 2.32875 3.125625 0.6875 3.0625 C-2.71997485 3.1760825 -4.26989631 3.40023364 -7.0625 5.1875 C-4.74811873 -1.25970497 -4.74811873 -1.25970497 0 0 Z " fill="#8E8E8E" transform="translate(311.0625,182.8125)"/>
<path d="M0 0 C3.3 0 6.6 0 10 0 C9.67 0.99 9.34 1.98 9 3 C6.36 3 3.72 3 1 3 C0.67 2.01 0.34 1.02 0 0 Z " fill="#656565" transform="translate(338,112)"/>
<path d="M0 0 C3.3 0 6.6 0 10 0 C6.91330796 3.08669204 6.08072342 3.44855089 2 4 C2 3.34 2 2.68 2 2 C1.34 2 0.68 2 0 2 C0 1.34 0 0.68 0 0 Z " fill="#6D6D6D" transform="translate(173,295)"/>
<path d="M0 0 C2.6875 0.875 2.6875 0.875 5 2 C5 2.66 5 3.32 5 4 C2.6875 4.6875 2.6875 4.6875 0 5 C-1.8125 3.5625 -1.8125 3.5625 -3 2 C-2.01 1.34 -1.02 0.68 0 0 Z " fill="#696969" transform="translate(270,294)"/>
<path d="M0 0 C0.99 0 1.98 0 3 0 C3.33 1.65 3.66 3.3 4 5 C3.01 5.495 3.01 5.495 2 6 C-0.125 5.0625 -0.125 5.0625 -2 4 C-1.34 2.68 -0.68 1.36 0 0 Z " fill="#646464" transform="translate(223,274)"/>
<path d="M0 0 C0 0.66 0 1.32 0 2 C0.66 2.33 1.32 2.66 2 3 C-1.3 3 -4.6 3 -8 3 C-8 2.34 -8 1.68 -8 1 C-5.07175348 0.02391783 -3.04386724 -0.08226668 0 0 Z " fill="#4B4B4B" transform="translate(384,290)"/>
<path d="M0 0 C3.2578125 -0.29296875 3.2578125 -0.29296875 7.125 -0.1875 C9.04699219 -0.14689453 9.04699219 -0.14689453 11.0078125 -0.10546875 C11.99523437 -0.07066406 12.98265625 -0.03585937 14 0 C14 0.33 14 0.66 14 1 C8.06 1.495 8.06 1.495 2 2 C2 2.66 2 3.32 2 4 C0.68 3.67 -0.64 3.34 -2 3 C-1.34 2.01 -0.68 1.02 0 0 Z " fill="#909090" transform="translate(221,290)"/>
<path d="M0 0 C1.65 0 3.3 0 5 0 C3.02 4.455 3.02 4.455 1 9 C0.67 9 0.34 9 0 9 C0 6.03 0 3.06 0 0 Z " fill="#A8A8A8" transform="translate(298,289)"/>
<path d="M0 0 C3.96 1.98 3.96 1.98 8 4 C8 4.33 8 4.66 8 5 C5.69 5 3.38 5 1 5 C0.34 3.68 -0.32 2.36 -1 1 C-0.67 0.67 -0.34 0.34 0 0 Z " fill="#5E5E5E" transform="translate(297,226)"/>
<path d="M0 0 C2.88575819 0.39803561 3.82189513 0.79009069 5.75 3.0625 C6.1625 3.701875 6.575 4.34125 7 5 C6.01 5.33 5.02 5.66 4 6 C3.67 5.01 3.34 4.02 3 3 C1.68 3.33 0.36 3.66 -1 4 C-0.67 2.68 -0.34 1.36 0 0 Z " fill="#5B5B5B" transform="translate(260,291)"/>
<path d="M0 0 C1.9453125 -0.29296875 1.9453125 -0.29296875 4.125 -0.1875 C5.40375 -0.125625 6.6825 -0.06375 8 0 C7.01 0.33 6.02 0.66 5 1 C5 1.66 5 2.32 5 3 C2.69 3 0.38 3 -2 3 C-1.34 2.01 -0.68 1.02 0 0 Z " fill="#595959" transform="translate(371,290)"/>
<path d="M0 0 C2.475 0.99 2.475 0.99 5 2 C5 2.66 5 3.32 5 4 C0.25 5.125 0.25 5.125 -2 4 C-1.34 2.68 -0.68 1.36 0 0 Z " fill="#707070" transform="translate(303,289)"/>
<path d="M0 0 C-1.25 2 -1.25 2 -3 4 C-4.32 4 -5.64 4 -7 4 C-7.33 3.01 -7.66 2.02 -8 1 C-5.07175348 0.02391783 -3.04386724 -0.08226668 0 0 Z " fill="#868686" transform="translate(343,234)"/>
<path d="M0 0 C1.98 0.99 3.96 1.98 6 3 C6 3.99 6 4.98 6 6 C4.02 5.34 2.04 4.68 0 4 C0 2.68 0 1.36 0 0 Z " fill="#797979" transform="translate(415,276)"/>
<path d="M0 0 C0 1.32 0 2.64 0 4 C-2.16874252 3.49396008 -3.99967627 3.00016187 -6 2 C-6 1.34 -6 0.68 -6 0 C-3.50907189 -1.24546405 -2.58919267 -0.7767578 0 0 Z " fill="#848484" transform="translate(349,251)"/>
<path d="M0 0 C4.8 2.46153846 4.8 2.46153846 5.8125 5.1875 C5.874375 5.785625 5.93625 6.38375 6 7 C5.34 6.67 4.68 6.34 4 6 C3.34 6.66 2.68 7.32 2 8 C2 6.68 2 5.36 2 4 C1.34 3.67 0.68 3.34 0 3 C0 2.01 0 1.02 0 0 Z " fill="#7E7E7E" transform="translate(227,239)"/>
<path d="M0 0 C0.33 0.66 0.66 1.32 1 2 C1.66 2 2.32 2 3 2 C2.34 3.32 1.68 4.64 1 6 C-0.32 5.34 -1.64 4.68 -3 4 C-3 3.34 -3 2.68 -3 2 C-2.01 1.34 -1.02 0.68 0 0 Z " fill="#494949" transform="translate(306,186)"/>
<path d="M0 0 C-0.33 0.66 -0.66 1.32 -1 2 C-3.0625 2.625 -3.0625 2.625 -5 3 C-5.99 1.68 -6.98 0.36 -8 -1 C-4.59745511 -2.2151946 -3.06748874 -1.86240388 0 0 Z " fill="#6D6D6D" transform="translate(332,147)"/>
<path d="M0 0 C0.99 0.33 1.98 0.66 3 1 C3 1.66 3 2.32 3 3 C2.34 3 1.68 3 1 3 C0.67 3.99 0.34 4.98 0 6 C-0.99 6.33 -1.98 6.66 -3 7 C-3.66 6.34 -4.32 5.68 -5 5 C-3.35 4.67 -1.7 4.34 0 4 C0 2.68 0 1.36 0 0 Z " fill="#AEAEAE" transform="translate(223,104)"/>
<path d="M0 0 C2.31 0 4.62 0 7 0 C7 0.99 7 1.98 7 3 C4.69 3 2.38 3 0 3 C0 2.01 0 1.02 0 0 Z " fill="#626262" transform="translate(138,278)"/>
<path d="M0 0 C0 1.65 0 3.3 0 5 C-1.65 4.67 -3.3 4.34 -5 4 C-4.67 3.01 -4.34 2.02 -4 1 C-2 0 -2 0 0 0 Z " fill="#575757" transform="translate(442,275)"/>
<path d="M0 0 C0.33 0 0.66 0 1 0 C1.25 6.625 1.25 6.625 -1 10 C-1.66 10 -2.32 10 -3 10 C-2.01 6.7 -1.02 3.4 0 0 Z " fill="#8C8C8C" transform="translate(312,257)"/>
<path d="M0 0 C0.66 0 1.32 0 2 0 C2 1.98 2 3.96 2 6 C1.01 6.33 0.02 6.66 -1 7 C-1.625 5.1875 -1.625 5.1875 -2 3 C-1.34 2.01 -0.68 1.02 0 0 Z " fill="#848484" transform="translate(321,259)"/>
<path d="M0 0 C-0.33 0.99 -0.66 1.98 -1 3 C-1.66 3 -2.32 3 -3 3 C-3 2.34 -3 1.68 -3 1 C-5.64 1 -8.28 1 -11 1 C-11 0.67 -11 0.34 -11 0 C-3.57142857 -1.28571429 -3.57142857 -1.28571429 0 0 Z " fill="#A7A7A7" transform="translate(440,258)"/>
<path d="M0 0 C0.66 0 1.32 0 2 0 C2.66 2.97 3.32 5.94 4 9 C3.34 9 2.68 9 2 9 C2 8.34 2 7.68 2 7 C1.34 7 0.68 7 0 7 C0 4.69 0 2.38 0 0 Z " fill="#8B8B8B" transform="translate(167,252)"/>
<path d="M0 0 C0.66 0.33 1.32 0.66 2 1 C2.33 1.99 2.66 2.98 3 4 C2.67 4.66 2.34 5.32 2 6 C1.34 6 0.68 6 0 6 C0 5.34 0 4.68 0 4 C-0.99 3.67 -1.98 3.34 -3 3 C-2.01 2.01 -1.02 1.02 0 0 Z " fill="#A2A2A2" transform="translate(214,103)"/>
<path d="M0 0 C1.32 0.33 2.64 0.66 4 1 C4 2.65 4 4.3 4 6 C2.68 5.67 1.36 5.34 0 5 C0 3.35 0 1.7 0 0 Z " fill="#5F5F5F" transform="translate(206,102)"/>
<path d="M0 0 C0.99 0 1.98 0 3 0 C3.66 1.98 4.32 3.96 5 6 C3.125 5.75 3.125 5.75 1 5 C-0.25 2.9375 -0.25 2.9375 -1 1 C-0.67 0.67 -0.34 0.34 0 0 Z " fill="#8B8B8B" transform="translate(382,271)"/>
<path d="M0 0 C0.33 1.32 0.66 2.64 1 4 C-0.65 4 -2.3 4 -4 4 C-4.33 3.01 -4.66 2.02 -5 1 C-3 0 -3 0 0 0 Z " fill="#848484" transform="translate(439,249)"/>
<path d="M0 0 C2.31 0.33 4.62 0.66 7 1 C7 1.66 7 2.32 7 3 C4.36 3 1.72 3 -1 3 C-0.67 2.01 -0.34 1.02 0 0 Z " fill="#5A5A5A" transform="translate(212,240)"/>
<path d="M0 0 C2.475 0.495 2.475 0.495 5 1 C5.33 1.99 5.66 2.98 6 4 C4.35 4 2.7 4 1 4 C0.67 2.68 0.34 1.36 0 0 Z " fill="#858585" transform="translate(440,235)"/>
<path d="M0 0 C0.99 0 1.98 0 3 0 C4.25541557 3.76624671 3.37061958 5.37188934 2 9 C1.67 9 1.34 9 1 9 C0.67 6.03 0.34 3.06 0 0 Z " fill="#767676" transform="translate(333,236)"/>
<path d="M0 0 C1.37562854 1.28965176 2.70766393 2.62689293 4 4 C4 4.66 4 5.32 4 6 C3.01 6.33 2.02 6.66 1 7 C0 6 0 6 -0.0625 2.9375 C-0.041875 1.968125 -0.02125 0.99875 0 0 Z " fill="#838383" transform="translate(152,224)"/>
<path d="M0 0 C0.99 0 1.98 0 3 0 C2.34 1.98 1.68 3.96 1 6 C-1 5 -1 5 -2 2 C-1.34 2 -0.68 2 0 2 C0 1.34 0 0.68 0 0 Z " fill="#606060" transform="translate(202,101)"/>
<path d="M0 0 C0.99 0.33 1.98 0.66 3 1 C3 1.66 3 2.32 3 3 C3.99 3 4.98 3 6 3 C5.67 3.66 5.34 4.32 5 5 C2.9375 5.625 2.9375 5.625 1 6 C0.67 4.02 0.34 2.04 0 0 Z " fill="#8E8E8E" transform="translate(207,93)"/>
<path d="M0 0 C0.66 0 1.32 0 2 0 C2 0.66 2 1.32 2 2 C1.34 2 0.68 2 0 2 C0 1.34 0 0.68 0 0 Z " fill="#FFFFFF" transform="translate(208,100)"/>
<path d="M0 0 C2 1 2 1 2 1 Z " fill="#404040" transform="translate(271,293)"/>
<path d="" fill="#BFBFBF" transform="translate(0,0)"/>
<path d="M0 0 C2 1 2 1 2 1 Z " fill="#616161" transform="translate(226,111)"/>
<path d="" fill="#FFFFFF" transform="translate(0,0)"/>
<path d="" fill="#FFFFFF" transform="translate(0,0)"/>
<path d="" fill="#808080" transform="translate(0,0)"/>
<path d="" fill="#808080" transform="translate(0,0)"/>
<path d="" fill="#FFFFFF" transform="translate(0,0)"/>
<path d="" fill="#FFFFFF" transform="translate(0,0)"/>
<path d="" fill="#FFFFFF" transform="translate(0,0)"/>
<path d="" fill="#FFFFFF" transform="translate(0,0)"/>
<path d="" fill="#FFFFFF" transform="translate(0,0)"/>
<path d="" fill="#AAAAAA" transform="translate(0,0)"/>
<path d="" fill="#FFFFFF" transform="translate(0,0)"/>
<path d="" fill="#FFFFFF" transform="translate(0,0)"/>
<path d="" fill="#FFFFFF" transform="translate(0,0)"/>
<path d="" fill="#808080" transform="translate(0,0)"/>
<path d="" fill="#808080" transform="translate(0,0)"/>
<path d="" fill="#AAAAAA" transform="translate(0,0)"/>
<path d="" fill="#000000" transform="translate(0,0)"/>
<path d="" fill="#808080" transform="translate(0,0)"/>
<path d="" fill="#FFFFFF" transform="translate(0,0)"/>
<path d="" fill="#FFFFFF" transform="translate(0,0)"/>
<path d="" fill="#FFFFFF" transform="translate(0,0)"/>
<path d="" fill="#808080" transform="translate(0,0)"/>
</svg>
